<svg xmlns="http://www.w3.org/2000/svg" width="30" height="29.982" viewBox="0 0 30 29.982">
  <g id="Analystics_Icon" data-name="Analystics Icon" transform="translate(-194.666 -0.009)">
    <rect id="Rectangle_19" data-name="Rectangle 19" width="0.842" height="0.848" transform="translate(200.512 10.707)" fill="#fff"/>
    <rect id="Rectangle_20" data-name="Rectangle 20" width="4.724" height="0.843" transform="translate(198.563 8.762)" fill="#fff"/>
    <rect id="Rectangle_21" data-name="Rectangle 21" width="0.844" height="0.839" transform="translate(202.453 10.706)" fill="#fff"/>
    <rect id="Rectangle_22" data-name="Rectangle 22" width="0.847" height="0.842" transform="translate(198.563 10.709)" fill="#fff"/>
    <path id="Path_34" data-name="Path 34" d="M218.593,23.351l-.6.578.552.555.595-.6Z" fill="#fff"/>
    <path id="Path_35" data-name="Path 35" d="M206.749,18.888A4.766,4.766,0,0,0,210.14,20.3h.009a4.808,4.808,0,0,0,.016-9.616h-.008a4.805,4.805,0,0,0-3.408,8.2ZM213.129,13a3.818,3.818,0,0,1,.542,4.241,4,4,0,0,1-3.526,2.186,3.7,3.7,0,0,1-.808-.089,3.91,3.91,0,0,1-3.049-3.353v-.047h.046l.859,0c.327,0,.657,0,.983.013.1,0,.192.179.238.282a1.888,1.888,0,0,0,3.625-.841,3.07,3.07,0,0,0-.146-.638c-.034-.111-.068-.225-.1-.347l-.006-.024.017-.018,1.292-1.395Zm-3.991,2.475a1.017,1.017,0,0,1,1.015-.994h.013a1.016,1.016,0,0,1-.011,2.031h0a1.024,1.024,0,0,1-1.016-1.037Zm-.505-3.589a3.863,3.863,0,0,1,3.807.414l.045.029-.338.366c-.329.356-.64.693-.961,1.027a.3.3,0,0,1-.282.041,1.817,1.817,0,0,0-1.5-.008,1.881,1.881,0,0,0-1.041,1.112.3.3,0,0,1-.221.183c-.338.006-.672.007-1.016.007h-.885l.009-.053A3.889,3.889,0,0,1,208.633,11.886Z" fill="#fff"/>
    <path id="Path_36" data-name="Path 36" d="M216.659,22.525l.518.562.6-.57-.564-.553Z" fill="#fff"/>
    <path id="Path_37" data-name="Path 37" d="M223.973.711a2.369,2.369,0,0,0-3.028-.283c-1.076.745-1.285,1.912-.605,3.375l.013.028-.021.022-.241.259c-.2.209-.4.424-.59.646a.465.465,0,0,1-.563.183,2.315,2.315,0,0,0-.705-.075q-10.511,0-21.021,0a2.392,2.392,0,0,0-2.546,2.559v14.2a2.383,2.383,0,0,0,2.567,2.569h8.1V25.25h-1.246c-1.031,0-2.1,0-3.145.01a.531.531,0,0,0-.356.178c-.469.6-.928,1.217-1.371,1.818l-.051.07a.491.491,0,0,0-.118.267c-.008.619-.008,1.227-.007,1.871v.528h17.384v-.536c0-.64,0-1.245-.006-1.862a.509.509,0,0,0-.118-.268l-.033-.045c-.449-.608-.914-1.238-1.389-1.843a.533.533,0,0,0-.356-.178c-1.057-.012-2.131-.009-3.169-.01h-1.223V24.208l.041,0,.05-.006a.559.559,0,0,1,.086-.009h.648c1.488,0,3.026,0,4.539.006a.543.543,0,0,1,.359.175c.52.575,1.041,1.167,1.546,1.738l.548.621a2.412,2.412,0,0,0,1.743.851c.038,0,.077,0,.115,0a2.443,2.443,0,0,0,1.646-4.248c-.088-.083-.179-.162-.27-.241-.12-.1-.245-.214-.36-.329a.453.453,0,0,1-.119-.309c.007-.141.025-.284.042-.422a4.387,4.387,0,0,0,.044-.537q0-2.672,0-5.344c0-2.752,0-5.6.01-8.4a2.855,2.855,0,0,0-.748-2.229l-.032-.031,1-1.087.031.017a2.4,2.4,0,0,0,3.181-.661A2.383,2.383,0,0,0,223.973.711ZM200.424,27.1l.183-.246c.154-.208.3-.4.452-.591a.374.374,0,0,1,.259-.128c1.049-.006,2.12-.006,3.158-.005h.846v1.042h-4.953Zm9.708-.955.043,0,.088,0c.121-.007.248-.008.374-.008h1.589c.59,0,1.188,0,1.778-.007h.008a.519.519,0,0,1,.478.25c.111.164.231.323.359.491.058.077.118.155.179.238l.054.072h-4.95Zm5.391,1.942v1.025h-15.6V28.087Zm-9.273-.916V24.195h2.955v2.976Zm8.205-3.862H197.194a1.514,1.514,0,0,1-1.648-1.646q0-7.145,0-14.288a1.514,1.514,0,0,1,1.633-1.631h21.082a1.514,1.514,0,0,1,1.645,1.65q0,5.049,0,10.1v4.479l-.754-.666-1.112-.982.075-.026c.683-.23.738-.756.736-1.322-.009-2.7-.008-5.449-.007-8.106q0-1.453,0-2.9c0-.833-.32-1.157-1.141-1.157h-19.96c-.8,0-1.135.339-1.135,1.133V19.192c0,.78.336,1.113,1.125,1.113h1.287c2.006,0,4.077,0,6.115.006a.759.759,0,0,1,.457.161,6.668,6.668,0,0,0,7.434,1.117.335.335,0,0,1,.461.1c.309.363.627.719.964,1.095l.4.451.068.076Zm.84-12.168-.135-.158-.109-.127.027-.03,2.877-3.107V19.354l-.03.011a1.249,1.249,0,0,1-.454.092,1.752,1.752,0,0,1-1.188-.7l-.047-.048c-.071-.071-.014-.266.023-.344a6.718,6.718,0,0,0-.964-7.222Zm-.994,8.5a5.831,5.831,0,0,1-4.147,1.722h0a5.879,5.879,0,1,1,4.149-1.722ZM200.95,13.669a1.9,1.9,0,0,0-2.331,2.342,1.916,1.916,0,0,0,1.679,1.377,1.865,1.865,0,0,0,1.867-1.138.414.414,0,0,1,.483-.318,3.815,3.815,0,0,0,.481.008c.08,0,.162,0,.248,0h.042l0,.041a6.887,6.887,0,0,0,1.186,3.362l.049.071H197.5V7.7h19.269l-2.353,2.543-.033-.023a6.792,6.792,0,0,0-10.978,4.8l-.005.04h-.04c-.083,0-.166,0-.249,0a6.353,6.353,0,0,1-.661-.014c-.108-.01-.211-.163-.252-.257A1.941,1.941,0,0,0,200.95,13.669Zm.51,1.828a1.024,1.024,0,0,1-1.017,1.015h-.023a1.016,1.016,0,0,1,.025-2.031h.009A1.018,1.018,0,0,1,201.46,15.5Zm19.33,8.431A1.567,1.567,0,0,1,219.8,26.7c-.03,0-.061,0-.091,0a1.465,1.465,0,0,1-1.049-.489q-1.811-2.042-3.613-4.087l-.872-.988,1.625-1.611a1.271,1.271,0,0,1,.108.086l.838.739Q218.77,22.138,220.79,23.928Zm1.505-20.036h-.006a1.5,1.5,0,1,1,.023-3,1.5,1.5,0,0,1-.017,3Z" fill="#fff"/>
    <path id="Path_38" data-name="Path 38" d="M215.24,21.162l.584.563.537-.513-.533-.619Z" fill="#fff"/>
  </g>
</svg>
