<svg xmlns="http://www.w3.org/2000/svg" width="30.028" height="30" viewBox="0 0 30.028 30">
  <path id="Batches_Icon" data-name="Batches Icon" d="M381.142,15.69a1.964,1.964,0,0,1,1.307-1.26c1.754-.685,3.491-1.414,5.234-2.125.08-.033.158-.069.3-.13-.37-.15-.688-.289-1.012-.409a1.086,1.086,0,0,1-.789-1.078c0-.5-.008-.995.008-1.493a1.013,1.013,0,0,1,.666-.95c.368-.156.746-.288,1.11-.453a.53.53,0,0,0,.238-.256q.32-.72.606-1.456a.539.539,0,0,0,.008-.35c-.134-.356-.294-.7-.445-1.051a1.029,1.029,0,0,1,.184-1.2c.368-.39.747-.772,1.143-1.134a.972.972,0,0,1,1.092-.178c.379.156.753.326,1.136.471a.485.485,0,0,0,.321-.011q.748-.292,1.485-.614a.5.5,0,0,0,.236-.224c.155-.347.287-.7.428-1.058a1.032,1.032,0,0,1,.971-.723c.536-.017,1.074-.017,1.61,0a1.009,1.009,0,0,1,.931.692c.142.342.261.695.42,1.029a.677.677,0,0,0,.308.3c.46.21.929.4,1.4.584a.614.614,0,0,0,.4.009c.358-.129.7-.289,1.053-.44a.993.993,0,0,1,1.144.177q.6.558,1.157,1.161a.975.975,0,0,1,.175,1.093c-.148.361-.316.715-.448,1.082a.623.623,0,0,0,.007.4q.267.711.582,1.4a.678.678,0,0,0,.3.309c.334.159.686.281,1.029.422a1.032,1.032,0,0,1,.7.989c.011.516.013,1.034,0,1.551a1,1,0,0,1-.646.933c-.355.156-.718.3-1.128.463.094.05.144.084.2.106,1.771.72,3.537,1.456,5.318,2.15a1.929,1.929,0,0,1,1.3,1.265v.586c-.222.892-.982,1.163-1.735,1.473.787.269,1.508.575,1.735,1.459V19.8c-.247.875-.985,1.161-1.832,1.445.854.293,1.618.572,1.832,1.487v.528a1.842,1.842,0,0,1-1.223,1.268c-2.014.8-4.016,1.622-6.022,2.437L396.449,30h-.586l-.455-.184c-4.316-1.754-8.629-3.516-12.952-5.252a2,2,0,0,1-1.314-1.25v-.587c.212-.913.985-1.178,1.746-1.486-.773-.277-1.506-.568-1.746-1.446v-.587c.224-.884.967-1.168,1.731-1.473-.773-.28-1.5-.581-1.731-1.459Zm22.743-2.6c-.135.277-.272.525-.374.787a.577.577,0,0,0-.007.376c.133.356.3.7.444,1.051a1.021,1.021,0,0,1-.183,1.172c-.359.386-.733.758-1.118,1.118a1.025,1.025,0,0,1-1.171.183c-.352-.147-.7-.308-1.054-.438a.59.59,0,0,0-.378.008q-.723.276-1.431.592a.587.587,0,0,0-.275.257c-.158.345-.285.7-.429,1.058a1.051,1.051,0,0,1-.986.708c-.507.021-1.016.02-1.524,0a1.061,1.061,0,0,1-1-.727c-.139-.355-.271-.712-.428-1.058a.533.533,0,0,0-.255-.241c-.473-.208-.95-.406-1.433-.587a.628.628,0,0,0-.4-.008c-.357.129-.7.3-1.052.441a1.015,1.015,0,0,1-1.147-.179c-.393-.365-.774-.745-1.139-1.139a1,1,0,0,1-.18-1.145c.152-.359.311-.716.457-1.078a.4.4,0,0,0,.03-.271c-.124-.293-.273-.575-.419-.873-.107.042-.2.076-.287.112q-2.766,1.124-5.533,2.245c-.254.1-.46.237-.459.537s.206.434.46.537q6.564,2.662,13.122,5.339a1.063,1.063,0,0,0,.868-.005q5.27-2.156,10.546-4.292,1.315-.536,2.631-1.069a.537.537,0,0,0,.391-.5.528.528,0,0,0-.391-.525c-.055-.021-.108-.046-.162-.068L405.9,13.9ZM389.97,5.951c-.042.105-.088.22-.135.335-.254.611-.523,1.216-.754,1.836a.744.744,0,0,1-.453.491c-.419.159-.838.323-1.247.506a.377.377,0,0,0-.2.26,11.422,11.422,0,0,0,0,1.2.379.379,0,0,0,.2.264c.418.186.847.349,1.275.515a.729.729,0,0,1,.426.48c.231.619.488,1.23.761,1.833a.728.728,0,0,1,.034.641c-.181.411-.347.828-.533,1.237a.3.3,0,0,0,.058.391c.275.264.531.548.817.8a.416.416,0,0,0,.351.054c.429-.16.85-.346,1.268-.533a.7.7,0,0,1,.615.028c.613.272,1.233.531,1.859.771a.727.727,0,0,1,.473.436c.159.419.337.832.493,1.252a.294.294,0,0,0,.321.228c.371-.009.743-.009,1.114,0a.3.3,0,0,0,.325-.224c.156-.421.333-.833.492-1.253a.727.727,0,0,1,.471-.438c.626-.239,1.246-.5,1.86-.77a.7.7,0,0,1,.614-.03c.419.187.839.372,1.269.532a.412.412,0,0,0,.351-.053c.286-.25.542-.534.816-.8a.3.3,0,0,0,.061-.391c-.186-.408-.352-.826-.533-1.236a.73.73,0,0,1,.034-.642c.274-.6.531-1.213.761-1.833a.738.738,0,0,1,.454-.489c.419-.159.838-.322,1.247-.506a.376.376,0,0,0,.195-.264,10.916,10.916,0,0,0,0-1.2.378.378,0,0,0-.2-.26c-.409-.185-.826-.352-1.246-.508a.732.732,0,0,1-.452-.49c-.232-.62-.487-1.231-.76-1.833a.731.731,0,0,1-.034-.642c.181-.411.346-.828.534-1.236a.3.3,0,0,0-.063-.391c-.273-.265-.544-.533-.808-.807a.275.275,0,0,0-.363-.051c-.417.19-.844.359-1.263.545a.7.7,0,0,1-.613-.032q-.92-.41-1.86-.77a.723.723,0,0,1-.472-.436c-.158-.42-.32-.839-.5-1.248A.418.418,0,0,0,396.742,1a9.136,9.136,0,0,0-1.17,0,.42.42,0,0,0-.285.217c-.185.408-.346.828-.5,1.248a.726.726,0,0,1-.472.436q-.939.36-1.859.77a.7.7,0,0,1-.614.035c-.419-.187-.838-.375-1.266-.537a.415.415,0,0,0-.353.05,9.792,9.792,0,0,0-.827.828.386.386,0,0,0-.051.33c.159.42.347.828.521,1.242C389.9,5.719,389.928,5.823,389.97,5.951Zm6.184,23.066c.135-.047.275-.087.409-.142q2.591-1.05,5.178-2.1,3.971-1.614,7.943-3.228c.259-.1.484-.238.482-.554s-.232-.446-.491-.548c-.471-.187-.936-.392-1.412-.565a.668.668,0,0,0-.435,0q-5.481,2.214-10.953,4.449a1.792,1.792,0,0,1-1.444-.005c-1.241-.521-2.492-1.018-3.739-1.525q-3.606-1.467-7.213-2.928a.617.617,0,0,0-.409,0c-.511.19-1.012.41-1.52.61a.536.536,0,0,0-.4.516.543.543,0,0,0,.408.512q6.656,2.7,13.31,5.41C395.955,28.955,396.048,28.981,396.154,29.017Zm14.015-9.52a.548.548,0,0,0-.393-.515c-.5-.206-.99-.417-1.493-.6a.7.7,0,0,0-.461,0q-5.481,2.213-10.953,4.448a1.739,1.739,0,0,1-1.418,0c-.438-.19-.884-.365-1.326-.545q-4.8-1.951-9.594-3.906a.609.609,0,0,0-.524,0c-.464.2-.936.392-1.409.575-.258.1-.454.243-.451.542s.2.423.439.522q6.561,2.664,13.118,5.338a1.121,1.121,0,0,0,.923-.006q4.983-2.04,9.973-4.062c1.048-.426,2.1-.855,3.145-1.278A.572.572,0,0,0,410.169,19.5ZM396.161,16.49a6.5,6.5,0,1,1,6.5-6.426A6.523,6.523,0,0,1,396.161,16.49Zm.022-1.01a5.5,5.5,0,1,0-5.534-5.494A5.5,5.5,0,0,0,396.183,15.48Zm3.6-5.168a.5.5,0,0,0,.732,0,.493.493,0,0,0-.048-.731c-.306-.316-.616-.628-.934-.931a.476.476,0,0,0-.729-.019c-.341.322-.672.655-.994.995a.5.5,0,0,0,.659.737l.152-.1a1.755,1.755,0,0,1-.019.184,2.485,2.485,0,0,1-2.342,2.02c-.4.028-.612.219-.6.535s.246.479.647.463a3.378,3.378,0,0,0,2.326-1.028,3.517,3.517,0,0,0,1.014-2.232Zm-7.252-.661a.5.5,0,1,0-.667.745c.3.307.6.614.913.912a.478.478,0,0,0,.708.038c.355-.334.7-.68,1.034-1.037a.45.45,0,0,0,0-.64.467.467,0,0,0-.634-.106c-.06.033-.115.074-.187.12a2.471,2.471,0,0,1,2.35-2.2c.4-.021.613-.211.6-.527s-.245-.488-.647-.469A3.425,3.425,0,0,0,393.7,7.5a3.515,3.515,0,0,0-1.034,2.253Z" transform="translate(-381.142 0)" fill="#fff"/>
</svg>
