<svg id="Calender_Icon_Blue" data-name="Calender Icon Blue" xmlns="http://www.w3.org/2000/svg" width="15.636" height="15.636" viewBox="0 0 15.636 15.636">
  <path id="Path_88" data-name="Path 88" d="M12.375,22.989a.489.489,0,0,1,.489-.489h3.909a.489.489,0,1,1,0,.977H12.864A.489.489,0,0,1,12.375,22.989Z" transform="translate(-7 -12.728)" fill="#0f2634" fill-rule="evenodd"/>
  <path id="Path_89" data-name="Path 89" d="M13.681,3.227H1.954A.977.977,0,0,0,.977,4.2V14.954a.977.977,0,0,0,.977.977H13.681a.977.977,0,0,0,.977-.977V4.2A.977.977,0,0,0,13.681,3.227ZM1.954,2.25A1.954,1.954,0,0,0,0,4.2V14.954a1.954,1.954,0,0,0,1.954,1.954H13.681a1.954,1.954,0,0,0,1.954-1.954V4.2A1.954,1.954,0,0,0,13.681,2.25Z" transform="translate(0 -1.273)" fill="#0f2634" fill-rule="evenodd"/>
  <path id="Path_90" data-name="Path 90" d="M7.239,0a.489.489,0,0,1,.489.489V.977a.489.489,0,0,1-.977,0V.489A.489.489,0,0,1,7.239,0Zm8.8,0a.489.489,0,0,1,.489.489V.977a.489.489,0,0,1-.977,0V.489A.489.489,0,0,1,16.034,0Z" transform="translate(-3.818)" fill="#0f2634" fill-rule="evenodd"/>
  <path id="Path_91" data-name="Path 91" d="M5.625,8.364a.489.489,0,0,1,.489-.489h9.772a.489.489,0,0,1,.489.489v.977a.489.489,0,0,1-.489.489H6.114a.489.489,0,0,1-.489-.489Z" transform="translate(-3.182 -4.455)" fill="#0f2634"/>
</svg>
