<svg xmlns="http://www.w3.org/2000/svg" width="30" height="23.595" viewBox="0 0 30 23.595">
  <path id="Department_Icon" data-name="Department Icon" d="M95,21.678a7,7,0,0,1,.536-1.278,2.575,2.575,0,0,1,2.234-1.118c.312,0,.624,0,.979,0,0-.116,0-.219,0-.321.014-.908-.024-1.819.054-2.721a2.6,2.6,0,0,1,2.4-2.289c.166-.013.332-.016.5-.016h7.744v-3.25a12.655,12.655,0,0,1-1.336-.008,2.6,2.6,0,0,1-2.379-2.5c-.038-.809-.04-1.622,0-2.43a2.609,2.609,0,0,1,2.51-2.505c1.169-.047,2.343-.048,3.513,0a2.61,2.61,0,0,1,2.508,2.506c.041.808.041,1.622,0,2.43a2.669,2.669,0,0,1-2.729,2.543c-.321.006-.642,0-1,0v3.215h.355q3.763,0,7.527,0a2.6,2.6,0,0,1,2.548,1.533,3.413,3.413,0,0,1,.273,1.27c.041.835.012,1.674.012,2.573.45,0,.876-.02,1.3,0a2.611,2.611,0,0,1,2.42,2.432,19.469,19.469,0,0,1-.023,2.69,2.536,2.536,0,0,1-2.426,2.319c-1.2.057-2.4.058-3.6,0a2.6,2.6,0,0,1-2.473-2.537c-.033-.75-.029-1.5-.008-2.255a2.677,2.677,0,0,1,2.743-2.682c.32-.006.641,0,.946,0,.026-.041.044-.057.044-.073,0-.917.036-1.837-.024-2.75A1.547,1.547,0,0,0,118.531,15c-.41-.008-.82,0-1.23,0h-6.752v4.318c.453,0,.9-.028,1.343.006a2.61,2.61,0,0,1,2.367,2.453,23.482,23.482,0,0,1,0,2.517,2.6,2.6,0,0,1-2.512,2.469c-1.16.045-2.325.045-3.485,0a2.619,2.619,0,0,1-2.532-2.545c-.035-.789-.036-1.583,0-2.372a2.672,2.672,0,0,1,2.739-2.564c.32-.006.64,0,.979,0V15h-.3q-3.779,0-7.557,0a1.637,1.637,0,0,0-1.775,1.765c0,.742,0,1.484,0,2.226,0,.086.008.172.014.267.471.022.928.021,1.38.067a2.593,2.593,0,0,1,2.325,2.364,23.045,23.045,0,0,1,0,2.693,2.586,2.586,0,0,1-2.475,2.377c-1.179.05-2.363.048-3.542,0a2.614,2.614,0,0,1-2.471-2.224A1.605,1.605,0,0,0,95,24.372ZM110.006,4.285c-.527,0-1.054-.01-1.581,0a1.6,1.6,0,0,0-1.638,1.6c-.024.721-.024,1.444,0,2.165a1.537,1.537,0,0,0,1.5,1.565c1.129.047,2.263.05,3.393,0a1.559,1.559,0,0,0,1.527-1.665c.008-.653.007-1.307,0-1.961A1.626,1.626,0,0,0,111.5,4.286C111,4.281,110.5,4.285,110.006,4.285Zm-.016,21.429c.526,0,1.054.011,1.58,0a1.608,1.608,0,0,0,1.639-1.632c.017-.692.014-1.385,0-2.078a1.549,1.549,0,0,0-1.51-1.62c-1.129-.049-2.264-.05-3.393,0a1.554,1.554,0,0,0-1.524,1.638c-.012.663-.008,1.327,0,1.99a1.626,1.626,0,0,0,1.716,1.706C108.994,25.718,109.492,25.714,109.99,25.714Zm-10.714,0c.527,0,1.054.01,1.581,0a1.594,1.594,0,0,0,1.632-1.543c.027-.76.026-1.522,0-2.282a1.516,1.516,0,0,0-1.441-1.5c-1.139-.046-2.283-.054-3.422-.013A1.517,1.517,0,0,0,96.084,21.9a18.8,18.8,0,0,0,0,2.252,1.593,1.593,0,0,0,1.7,1.561C98.281,25.718,98.779,25.714,99.276,25.714Zm21.42,0c.517,0,1.034.007,1.551,0A1.571,1.571,0,0,0,123.9,24.2a17.063,17.063,0,0,0,0-2.339,1.507,1.507,0,0,0-1.543-1.49c-1.1-.042-2.205-.045-3.305,0a1.569,1.569,0,0,0-1.558,1.7q-.006.966,0,1.931a1.622,1.622,0,0,0,1.707,1.712C119.7,25.718,120.2,25.714,120.7,25.714Z" transform="translate(-95 -3.202)" fill="#fff"/>
</svg>
