<svg xmlns="http://www.w3.org/2000/svg" width="30" height="29.652" viewBox="0 0 30 29.652">
  <g id="Finance_Icon" data-name="Finance Icon" transform="translate(-481.558 -0.174)">
    <path id="Path_82" data-name="Path 82" d="M489.734.37a9.621,9.621,0,0,0-7.893,7.451,9,9,0,0,0-.2,1.089c-.025.171-.05.341-.079.511v1.465l.032.194c.024.153.048.306.075.459a9.836,9.836,0,0,0,6.826,8.042.9.9,0,0,1,.615.643l.027.081h-.085c-.174,0-.346,0-.516,0-.375,0-.729-.006-1.088,0a2.653,2.653,0,0,0-2.531,2.561v.063a2.648,2.648,0,0,0,.746,1.856,2.607,2.607,0,0,0,1.859.8c1.016.011,2.048.008,3.047.006l1.334,0h.449l-.084.164c-.02.038-.033.065-.048.091a2.922,2.922,0,0,0-.353,1.372,2.568,2.568,0,0,0,.362,1.324,2.727,2.727,0,0,0,2.38,1.284c4.481,0,9.3,0,14.2-.007a3.092,3.092,0,0,0,.986-.16,2.632,2.632,0,0,0-.812-5.114c-.962-.014-1.94-.011-2.886-.008l-1.26,0h-.731l.056-.094a2.733,2.733,0,0,0,0-3l-.056-.094h.109c.182,0,.359,0,.533,0,.377,0,.733,0,1.09-.006a2.642,2.642,0,0,0,2.5-3.095,2.736,2.736,0,0,0-.951-1.613l-.052-.047.052-.047a2.653,2.653,0,0,0,.993-2.068v0a2.694,2.694,0,0,0-.992-2.074l-.053-.047.053-.046a2.651,2.651,0,0,0,.992-2.072v-.019a2.691,2.691,0,0,0-.994-2.052l-.053-.048.054-.046a2.613,2.613,0,0,0,.988-1.914,2.634,2.634,0,0,0-2.642-2.793c-1.98-.01-3.993-.006-5.941,0h-.705a.66.66,0,0,1-.508-.2A9.5,9.5,0,0,0,489.734.37Zm13.7,25.219q2.726,0,5.452,0a1.591,1.591,0,1,1,.005,3.181h-4.174q-5.1,0-10.205,0a1.58,1.58,0,0,1-1.6-1.587v0a1.578,1.578,0,0,1,1.6-1.589q2.583-.007,5.166,0h3.761Zm-6.443-4.236q2.467,0,4.935,0a1.644,1.644,0,0,1,1.325.645,1.554,1.554,0,0,1,.312.936,1.662,1.662,0,0,1-.065.455,1.584,1.584,0,0,1-1.528,1.144c-.674.005-1.349,0-2.023,0h-12.3a1.592,1.592,0,0,1-1.25-2.679,1.646,1.646,0,0,1,1.206-.5q2.514,0,5.03,0h4.356Zm5.544-4.235q1.578,0,3.157,0a1.641,1.641,0,0,1,1.324.645,1.549,1.549,0,0,1,.312.936,1.6,1.6,0,0,1-1.6,1.6c-.767,0-1.532,0-2.3,0h-3.024q-4.457,0-8.913,0c-.146,0-.292-.015-.434-.029l-.2-.019-.059,0,.008-.234h.06c.16,0,.32,0,.48.007a9.53,9.53,0,0,0,1.028-.013,9.692,9.692,0,0,0,5.9-2.646.847.847,0,0,1,.637-.247Q500.729,17.12,502.531,17.118Zm3.229-4.231a1.591,1.591,0,0,1,1.547,1.348,1.465,1.465,0,0,1,.02.246,1.588,1.588,0,0,1-1.07,1.49,1.627,1.627,0,0,1-.507.091q-2.525.007-5.05,0h-.972a.424.424,0,0,1-.075-.009l-.164-.025.057-.083a10.2,10.2,0,0,0,1.312-2.5c.194-.549.216-.565.815-.565h1.163C503.794,12.881,504.785,12.879,505.76,12.887Zm-.006-4.236a1.571,1.571,0,0,1,1.538,1.283,1.455,1.455,0,0,1,.032.307,1.6,1.6,0,0,1-.921,1.436,1.393,1.393,0,0,1-.53.142c-1.158.008-2.33.008-3.462.007h-1.036V8.679l.07-.014a.476.476,0,0,1,.107-.016h1.02C503.615,8.646,504.693,8.644,505.754,8.651Zm-.024-4.235a1.6,1.6,0,0,1,1.344.728,1.567,1.567,0,0,1,.115,1.489,1.485,1.485,0,0,1-1.383.953c-1.1.016-2.211.013-3.284.01l-1.265,0h-.04l-.016-.037-1.422-3.072.018-.033c.012-.022.027-.039.112-.039h1.624C502.908,4.41,504.331,4.408,505.73,4.416Zm-7.945-.563a8.824,8.824,0,0,1,2.6,6.267v.019a8.885,8.885,0,0,1-17.77-.018v0a8.879,8.879,0,0,1,15.174-6.266Z" fill="#fff"/>
    <path id="Path_83" data-name="Path 83" d="M492.31,13.963a2.224,2.224,0,0,0,1.6-2.115c0-.035,0-.071,0-.106a2.26,2.26,0,0,0-1.836-2.036,3.9,3.9,0,0,0-.47-.061c-.131-.012-.267-.025-.4-.048a1.293,1.293,0,0,1-.9-.608,1.039,1.039,0,0,1-.088-.888,1.375,1.375,0,0,1,1.5-.813,1.244,1.244,0,0,1,1.144,1.139.532.532,0,0,0,.558.546A.527.527,0,0,0,493.9,8.4v-.03a2.1,2.1,0,0,0-.555-1.343,2.518,2.518,0,0,0-1.255-.746l-.04-.011-.005-.042c-.077-.662-.281-.792-.562-.784s-.466.141-.538.778l0,.038-.093.034c-.041.016-.085.033-.129.047a2.246,2.246,0,0,0-1.63,2.2,2.289,2.289,0,0,0,1.832,2.072,3.481,3.481,0,0,0,.468.06c.105.008.21.017.313.031a1.265,1.265,0,0,1,1.07.773.992.992,0,0,1-.183,1.081,1.389,1.389,0,0,1-1.533.421,1.188,1.188,0,0,1-.923-1.139.521.521,0,0,0-.171-.369.539.539,0,0,0-.4-.12.488.488,0,0,0-.353.176.672.672,0,0,0-.116.524,2.214,2.214,0,0,0,1.563,1.9c.205.073.318.16.318.4,0,.01,0,.022,0,.032a.552.552,0,0,0,.159.4.5.5,0,0,0,.374.146.524.524,0,0,0,.506-.562v-.014A.356.356,0,0,1,492.31,13.963Z" fill="#fff"/>
    <path id="Path_84" data-name="Path 84" d="M488.451,15.9a6.387,6.387,0,0,1-2.949-3.21,6.407,6.407,0,0,1,.148-5.477,1.335,1.335,0,0,0,.13-.366.517.517,0,0,0-.369-.537.53.53,0,0,0-.635.3,7.825,7.825,0,0,0-.868,3.691,7.321,7.321,0,0,0,2.381,5.313,10.219,10.219,0,0,0,1.535,1.1l.294.186a.58.58,0,0,0,.471.095.513.513,0,0,0,.319-.276c.146-.29.027-.565-.328-.756Z" fill="#fff"/>
    <path id="Path_85" data-name="Path 85" d="M494.15,3.431a.432.432,0,0,0-.124.359.709.709,0,0,0,.349.475c.113.072.227.143.342.214a7.843,7.843,0,0,1,1.2.861,6.445,6.445,0,0,1,1.4,7.734.934.934,0,0,0-.1.39.463.463,0,0,0,.282.435c.3.149.573.022.764-.357a7.737,7.737,0,0,0,.778-2.7,7.54,7.54,0,0,0-4.171-7.515,1.906,1.906,0,0,0-.22-.083l-.124-.042q-.051.027-.108.054A.906.906,0,0,0,494.15,3.431Z" fill="#fff"/>
    <path id="Path_86" data-name="Path 86" d="M490.588,16.655a.551.551,0,0,0-.388.165.522.522,0,0,0,.4.885.54.54,0,0,0,.387-.164.512.512,0,0,0,.147-.36v-.008A.53.53,0,0,0,490.588,16.655Z" fill="#fff"/>
    <path id="Path_87" data-name="Path 87" d="M492.393,2.538a.543.543,0,0,0-.388.161.515.515,0,0,0-.151.364v0a.536.536,0,0,0,.546.522.547.547,0,0,0,.39-.162.513.513,0,0,0,.149-.363v0A.535.535,0,0,0,492.393,2.538Z" fill="#fff"/>
  </g>
</svg>
