<svg xmlns="http://www.w3.org/2000/svg" width="12.179" height="16" viewBox="0 0 12.179 16">
  <path id="Login_Password_Icon" data-name="Login Password Icon" d="M10.679,5.752a1.525,1.525,0,0,1,1.5,1.5V14.9a1.524,1.524,0,0,1-1.5,1.5H1.536a1.482,1.482,0,0,1-1.089-.447A1.441,1.441,0,0,1,0,14.895V7.252A1.441,1.441,0,0,1,.447,6.2a1.482,1.482,0,0,1,1.089-.447h.75V4.216a3.679,3.679,0,0,1,1.125-2.7A3.676,3.676,0,0,1,6.107.395,3.623,3.623,0,0,1,8.786,1.52a3.705,3.705,0,0,1,1.107,2.7V5.753h.786ZM6.09,12.609a1.46,1.46,0,0,0,1.071-.447,1.552,1.552,0,0,0,0-2.179,1.508,1.508,0,0,0-2.142,0,1.552,1.552,0,0,0,0,2.179,1.461,1.461,0,0,0,1.071.447ZM8.465,5.752V4.216a2.267,2.267,0,0,0-.7-1.661,2.288,2.288,0,0,0-1.679-.7,2.23,2.23,0,0,0-1.661.7A2.3,2.3,0,0,0,3.75,4.216V5.752H8.464Z" transform="translate(0 -0.395)" fill="#fff"/>
</svg>
