<svg xmlns="http://www.w3.org/2000/svg" width="239.65" height="73.332" viewBox="0 0 239.65 73.332">
  <g id="Login_Top_logo" data-name="Login Top logo" transform="translate(-429.791 -505.988)">
    <g id="Group_2" data-name="Group 2" transform="translate(429.791 505.988)">
      <path id="Path_1" data-name="Path 1" d="M461.989,547.861c-1.318-.781-2.5-.386-3.824,1.283-4.076,5.138-10.113,6.561-15.747,3.714a13.577,13.577,0,0,1-7.01-15.331c1.35-5.244,4.684-8.7,9.841-9.959,5.222-1.277,9.591.412,12.939,4.749,1.35,1.75,2.792,2.1,4.1,1.059s1.33-2.6.037-4.314c-4.445-5.892-10.379-8.115-17.451-6.908a18.736,18.736,0,0,0-14.893,15.593c-1.123,8.437,2.846,16.371,10.192,19.885a21,21,0,0,0,3.672,1.266,16.908,16.908,0,0,0,8.231.279,16.469,16.469,0,0,0,3.359-1.1,17.659,17.659,0,0,0,5.762-4.271,12.508,12.508,0,0,0,1.861-2.578A2.6,2.6,0,0,0,461.989,547.861Z" transform="translate(-429.791 -504.752)" fill="#fff"/>
      <path id="Path_2" data-name="Path 2" d="M545.767,527.7q0-3.76,0-7.52c0-3.109.012-6.8.022-9.89,0-.233-.008-.456-.025-.672v-.407a3.076,3.076,0,0,0-1.906-3.042,3.024,3.024,0,0,0-.974-.183,2.637,2.637,0,0,0-1.356.338,3.147,3.147,0,0,0-.879.729,3,3,0,0,0-.857,2.187c.018,9.948.019,20.644.019,30.426q0,3.762,0,7.522-.008,4.663-.023,9.306c0,.234.009.457.025.673v.406a3.075,3.075,0,0,0,1.906,3.042,2.976,2.976,0,0,0,.974.183,2.629,2.629,0,0,0,1.357-.337,3.132,3.132,0,0,0,.877-.73,2.99,2.99,0,0,0,.857-2.187C545.768,547.6,545.767,537.486,545.767,527.7Z" transform="translate(-421.209 -505.988)" fill="#fff"/>
      <g id="Group_1" data-name="Group 1" transform="translate(203.129 17.007)">
        <path id="Path_3" data-name="Path 3" d="M652.1,524.119c0,.015,0,.03,0,.045C652.1,524.149,652.1,524.134,652.1,524.119Z" transform="translate(-615.575 -521.581)" fill="#fff"/>
        <path id="Path_4" data-name="Path 4" d="M652.079,523.838c.005.053.008.107.01.161C652.086,523.945,652.086,523.89,652.079,523.838Z" transform="translate(-615.576 -521.603)" fill="#fff"/>
        <path id="Path_5" data-name="Path 5" d="M652.088,523.987c0,.047.009.094.009.142C652.1,524.082,652.091,524.034,652.088,523.987Z" transform="translate(-615.575 -521.591)" fill="#fff"/>
        <path id="Path_6" data-name="Path 6" d="M654.1,525.363c0-.052,0-.1-.009-.155a4.366,4.366,0,0,0-.97-2.111,4.012,4.012,0,0,0-1.328-.952,4.208,4.208,0,0,0-1.646-.377,3.91,3.91,0,0,0-2.857,1.5,5.154,5.154,0,0,0-.612,1.015c-3.422,7.416-6.936,14.943-10.335,22.22l-.179.383h0l-.028.062q-2.587-5.532-5.169-11.064-2.857-6.119-5.717-12.234a3.433,3.433,0,0,0-4.715-1.5,3.686,3.686,0,0,0-2.184,4.311,5.161,5.161,0,0,0,.35.848c.03.063.061.125.091.189q1.65,3.537,3.3,7.071c3.437,7.36,6.991,14.968,10.451,22.466a4.035,4.035,0,0,0,3.357,2.5c.087.012.176.016.263.02h0c.087,0,.176-.008.263-.02a3.93,3.93,0,0,0,2.78-1.536,5.072,5.072,0,0,0,.577-.966c3.46-7.5,7.015-15.106,10.451-22.466q1.651-3.535,3.3-7.071c.029-.064.061-.126.091-.189a5.172,5.172,0,0,0,.35-.848,3.217,3.217,0,0,0,.129-.911c0-.014,0-.029,0-.043C654.108,525.455,654.1,525.41,654.1,525.363Z" transform="translate(-618.218 -521.764)" fill="#fff"/>
      </g>
      <path id="Path_7" data-name="Path 7" d="M517.757,522.376a18.556,18.556,0,1,0,0,37.111h2.055a3.083,3.083,0,1,0,0-6.166h-2.055a12.361,12.361,0,0,1,0-24.722A11.344,11.344,0,0,1,529.09,539.93v16.5a3.084,3.084,0,0,0,6.167,0v-16.5A17.51,17.51,0,0,0,517.757,522.376Z" transform="translate(-424.376 -504.709)" fill="#fff"/>
      <path id="Path_8" data-name="Path 8" d="M602.866,521.764a18.922,18.922,0,1,0,0,37.843,20.53,20.53,0,0,0,14.814-6.231,3.146,3.146,0,0,0-4.561-4.334,14.229,14.229,0,0,1-10.253,4.275,12.6,12.6,0,1,1,0-25.208,11.578,11.578,0,0,1,11.216,8.752H598.644a3.145,3.145,0,0,0,0,6.289h18.922a3.156,3.156,0,0,0,3.144-3.146v-.339A17.855,17.855,0,0,0,602.866,521.764Z" transform="translate(-417.763 -504.757)" fill="#fff"/>
      <path id="Path_9" data-name="Path 9" d="M481.953,521.835c-.072,0-.146.005-.219.005s-.145-.005-.22-.005a17.832,17.832,0,0,0-13.307,5.965,18.819,18.819,0,0,0-.238,25.585,17.777,17.777,0,0,0,13.545,6.217c.074,0,.145,0,.22-.007s.147.007.219.007a17.84,17.84,0,0,0,13.308-5.965,18.82,18.82,0,0,0,.237-25.585A17.78,17.78,0,0,0,481.953,521.835Zm9.916,25.965a3.47,3.47,0,0,0-.277.352c-.111.168-.229.329-.347.491a12.022,12.022,0,0,1-18.752.348c-.217-.271-.425-.547-.617-.839a3.151,3.151,0,0,0-.376-.46,12.586,12.586,0,0,1,.1-14.057,3.287,3.287,0,0,0,.276-.351c.111-.167.23-.33.347-.491a12.02,12.02,0,0,1,18.752-.349c.217.27.425.547.617.84a3.272,3.272,0,0,0,.376.46,12.587,12.587,0,0,1-.1,14.056Z" transform="translate(-427.195 -504.752)" fill="#fff"/>
      <path id="Path_10" data-name="Path 10" d="M583.205,508.08c0-1.122-1.374-2.012-3.052-2.012s-3.052.906-3.052,2.012v31.4c0,.046,0,.1.007.143v2.836a11.232,11.232,0,0,1-11.221,11.22,12.239,12.239,0,1,1,0-24.477h2.035a3.053,3.053,0,0,0,0-6.106h-2.035a18.373,18.373,0,1,0,0,36.746,17.335,17.335,0,0,0,17.327-17.382V526.118c0-.073,0-.146-.009-.217Z" transform="translate(-420.606 -505.982)" fill="#fff"/>
    </g>
    <g id="Group_3" data-name="Group 3" transform="translate(505.6 567.092)">
      <path id="Path_11" data-name="Path 11" d="M500.788,563.132a.46.46,0,0,1,.79-.323.441.441,0,0,1,.138.323v2.186h1.273a.464.464,0,0,1,0,.928h-1.273v5.233a.459.459,0,0,1-.788.324.447.447,0,0,1-.14-.324v-5.233h-.211a.464.464,0,0,1,0-.928h.211Z" transform="translate(-500.113 -562.669)" fill="#fff"/>
      <path id="Path_12" data-name="Path 12" d="M505.176,565.591a.448.448,0,0,1,.14-.324.463.463,0,0,1,.787.324v3.5a1.994,1.994,0,0,0,.161.793,1.971,1.971,0,0,0,.436.644,2.113,2.113,0,0,0,.644.43,1.945,1.945,0,0,0,.787.158,2,2,0,0,0,.794-.158,2.111,2.111,0,0,0,.649-.43,1.993,1.993,0,0,0,.6-1.437v-3.5a.464.464,0,0,1,.928,0v3.5a2.894,2.894,0,0,1-.234,1.151,2.958,2.958,0,0,1-.635.948,3.111,3.111,0,0,1-.947.643,2.936,2.936,0,0,1-2.312,0,3,3,0,0,1-1.563-1.591,2.894,2.894,0,0,1-.233-1.151Z" transform="translate(-499.718 -562.477)" fill="#fff"/>
      <path id="Path_13" data-name="Path 13" d="M512.944,565.616a.464.464,0,0,1,.927,0v.794a3.05,3.05,0,0,1,.437-.549,3.606,3.606,0,0,1,.642-.517,3.9,3.9,0,0,1,.789-.384,2.538,2.538,0,0,1,.874-.154.5.5,0,0,1,.516.517.465.465,0,0,1-.159.366.586.586,0,0,1-.4.138,2.241,2.241,0,0,0-1.092.272,2.964,2.964,0,0,0-.854.7,3.133,3.133,0,0,0-.556.96,3.049,3.049,0,0,0-.2,1.066v2.49a.464.464,0,0,1-.927,0Z" transform="translate(-499.112 -562.502)" fill="#fff"/>
      <path id="Path_14" data-name="Path 14" d="M518.29,565.616a.464.464,0,0,1,.927,0v.144a1.573,1.573,0,0,1,.358-.39,2.371,2.371,0,0,1,.5-.3,2.8,2.8,0,0,1,.577-.193,2.921,2.921,0,0,1,.609-.067,2.757,2.757,0,0,1,1.132.239,3.052,3.052,0,0,1,.941.644,3.085,3.085,0,0,1,.644.954,2.9,2.9,0,0,1,.237,1.159v3.51a.464.464,0,0,1-.927,0V567.8a2,2,0,0,0-.16-.8,2.036,2.036,0,0,0-1.086-1.086,1.931,1.931,0,0,0-.782-.161,1.871,1.871,0,0,0-1.133.365,2.3,2.3,0,0,0-.748.92,1.884,1.884,0,0,0-.16.664v3.6a.475.475,0,0,1-.465.464.477.477,0,0,1-.462-.464Z" transform="translate(-498.695 -562.502)" fill="#fff"/>
      <path id="Path_15" data-name="Path 15" d="M526.045,563.569a.54.54,0,1,1,.157.4A.541.541,0,0,1,526.045,563.569Zm.079,2.186a.475.475,0,0,1,.465-.465.479.479,0,0,1,.463.465v5.7a.477.477,0,0,1-.463.464.473.473,0,0,1-.465-.464Z" transform="translate(-498.09 -562.642)" fill="#fff"/>
      <path id="Path_16" data-name="Path 16" d="M529.436,565.616a.479.479,0,0,1,.465-.465.475.475,0,0,1,.463.465v.144a1.534,1.534,0,0,1,.358-.39,2.4,2.4,0,0,1,.5-.3,2.785,2.785,0,0,1,.576-.193,2.949,2.949,0,0,1,.61-.067,2.765,2.765,0,0,1,1.132.239,3.08,3.08,0,0,1,.942.644,3.04,3.04,0,0,1,.642.954,2.881,2.881,0,0,1,.237,1.159v3.51a.446.446,0,0,1-.138.325.449.449,0,0,1-.649,0,.447.447,0,0,1-.139-.325V567.8a2.006,2.006,0,0,0-.159-.8,2.037,2.037,0,0,0-1.086-1.086,1.937,1.937,0,0,0-.781-.161,1.871,1.871,0,0,0-1.134.365,2.3,2.3,0,0,0-.749.92,1.939,1.939,0,0,0-.158.664v3.6a.473.473,0,0,1-.463.464.477.477,0,0,1-.465-.464Z" transform="translate(-497.825 -562.502)" fill="#fff"/>
      <path id="Path_17" data-name="Path 17" d="M537.016,572.756a.475.475,0,0,1,.462-.464.384.384,0,0,1,.239.079.72.72,0,0,1,.172.185,3.025,3.025,0,0,0,.37.451,2.786,2.786,0,0,0,.869.584,2.73,2.73,0,0,0,2.106,0,2.773,2.773,0,0,0,.868-.584,2.7,2.7,0,0,0,.583-.868,2.656,2.656,0,0,0,.212-1.053v-.2l-.147.146a3.621,3.621,0,0,1-1.153.775,3.668,3.668,0,0,1-2.833,0,3.678,3.678,0,0,1-1.943-1.94,3.686,3.686,0,0,1,0-2.835,3.673,3.673,0,0,1,1.943-1.941,3.6,3.6,0,0,1,3.987.788,1.113,1.113,0,0,1,.147.147v-.411a.457.457,0,0,1,.787-.324.437.437,0,0,1,.141.324v5.471a3.535,3.535,0,0,1-.286,1.418,3.659,3.659,0,0,1-1.943,1.94,3.654,3.654,0,0,1-2.833,0,3.684,3.684,0,0,1-1.167-.788,2.944,2.944,0,0,1-.477-.6A.5.5,0,0,1,537.016,572.756Zm.451-4.307a2.664,2.664,0,0,0,.212,1.054,2.7,2.7,0,0,0,1.45,1.451,2.729,2.729,0,0,0,2.106,0,2.716,2.716,0,0,0,1.451-1.451,2.72,2.72,0,0,0,0-2.108,2.721,2.721,0,0,0-1.451-1.45,2.719,2.719,0,0,0-2.106,0,2.728,2.728,0,0,0-.869.583,2.7,2.7,0,0,0-.581.867A2.666,2.666,0,0,0,537.467,568.45Z" transform="translate(-497.271 -562.502)" fill="#fff"/>
      <path id="Path_18" data-name="Path 18" d="M556.486,568.617a3.538,3.538,0,0,1-.286,1.419,3.655,3.655,0,0,1-1.941,1.94,3.67,3.67,0,0,1-2.834,0,3.66,3.66,0,0,1-1.94-1.94,3.66,3.66,0,0,1,0-2.835,3.657,3.657,0,0,1,1.94-1.941,3.55,3.55,0,0,1,1.418-.286,3.309,3.309,0,0,1,1.549.412,3.559,3.559,0,0,1,1.166.861v-3.114a.464.464,0,0,1,.928,0Zm-.928,0a2.663,2.663,0,0,0-.212-1.053,2.722,2.722,0,0,0-1.45-1.45,2.716,2.716,0,0,0-2.106,0,2.705,2.705,0,0,0-.868.583,2.768,2.768,0,0,0-.584.867,2.734,2.734,0,0,0,0,2.108,2.785,2.785,0,0,0,.584.868,2.72,2.72,0,0,0,.868.583,2.732,2.732,0,0,0,2.106,0,2.719,2.719,0,0,0,1.45-1.451A2.661,2.661,0,0,0,555.557,568.617Z" transform="translate(-496.283 -562.669)" fill="#fff"/>
      <path id="Path_19" data-name="Path 19" d="M558.169,565.616a.459.459,0,0,1,.789-.324.445.445,0,0,1,.138.324v.794a3.07,3.07,0,0,1,.439-.549,3.48,3.48,0,0,1,.641-.517,3.893,3.893,0,0,1,.788-.384,2.548,2.548,0,0,1,.874-.154.5.5,0,0,1,.517.517.465.465,0,0,1-.159.366.585.585,0,0,1-.4.138,2.239,2.239,0,0,0-1.092.272,3,3,0,0,0-.855.7,3.176,3.176,0,0,0-.556.96,3.046,3.046,0,0,0-.2,1.066v2.49a.473.473,0,0,1-.463.464.477.477,0,0,1-.465-.464Z" transform="translate(-495.583 -562.502)" fill="#fff"/>
      <path id="Path_20" data-name="Path 20" d="M563.854,568.172a.656.656,0,0,0-.014.14v.138a2.664,2.664,0,0,0,.212,1.054,2.765,2.765,0,0,0,.583.868,2.718,2.718,0,0,0,.868.583,2.73,2.73,0,0,0,3.265-.915.8.8,0,0,1,.172-.192.387.387,0,0,1,.253-.086.446.446,0,0,1,.324.139.452.452,0,0,1,.138.326.633.633,0,0,1-.138.363,3.767,3.767,0,0,1-.391.444,3.637,3.637,0,0,1-1.093.756,3.492,3.492,0,0,1-1.477.3,3.55,3.55,0,0,1-1.418-.285,3.661,3.661,0,0,1-1.94-1.94,3.66,3.66,0,0,1,0-2.835,3.656,3.656,0,0,1,1.94-1.941,3.55,3.55,0,0,1,1.418-.286,3.64,3.64,0,0,1,1.173.193,3.554,3.554,0,0,1,1.027.55,3.888,3.888,0,0,1,.807.855,3.5,3.5,0,0,1,.5,1.092c.009.027.017.058.027.094a.761.761,0,0,1,.026.173.355.355,0,0,1-.139.318.6.6,0,0,1-.337.092Zm5.128-.927a2.5,2.5,0,0,0-1.021-1.119,2.765,2.765,0,0,0-1.4-.391,2.72,2.72,0,0,0-.616.079,2.863,2.863,0,0,0-.676.26,3.037,3.037,0,0,0-.644.464,2.319,2.319,0,0,0-.5.708Z" transform="translate(-495.213 -562.502)" fill="#fff"/>
      <path id="Path_21" data-name="Path 21" d="M577.309,570.888l-.145.146a3.624,3.624,0,0,1-1.154.775,3.67,3.67,0,0,1-2.834,0,3.663,3.663,0,0,1-1.94-1.94,3.658,3.658,0,0,1,0-2.835,3.658,3.658,0,0,1,1.94-1.941,3.657,3.657,0,0,1,2.834,0,3.653,3.653,0,0,1,1.943,1.941,3.547,3.547,0,0,1,.284,1.417v2.862a.464.464,0,0,1-.928,0Zm-5.432-2.438a2.662,2.662,0,0,0,.212,1.054,2.763,2.763,0,0,0,.583.868,2.718,2.718,0,0,0,.868.583,2.729,2.729,0,0,0,2.106,0A2.723,2.723,0,0,0,577.1,569.5a2.712,2.712,0,0,0-.584-2.974,2.712,2.712,0,0,0-.867-.583,2.719,2.719,0,0,0-2.106,0,2.7,2.7,0,0,0-.868.583,2.742,2.742,0,0,0-.583.867A2.664,2.664,0,0,0,571.877,568.45Z" transform="translate(-494.586 -562.502)" fill="#fff"/>
      <path id="Path_22" data-name="Path 22" d="M579.8,565.616a.464.464,0,0,1,.928,0v.133a2.252,2.252,0,0,1,.867-.682,2.665,2.665,0,0,1,1.147-.26,2.723,2.723,0,0,1,1.418.372,3.121,3.121,0,0,1,1.033,1.007,2.859,2.859,0,0,1,1.08-1.007,3.051,3.051,0,0,1,1.477-.372,2.8,2.8,0,0,1,1.146.239,2.953,2.953,0,0,1,.933.644,2.994,2.994,0,0,1,.631.954,2.954,2.954,0,0,1,.232,1.159v3.51a.46.46,0,0,1-.789.325.445.445,0,0,1-.138-.325V567.8a2,2,0,0,0-.16-.8,2.116,2.116,0,0,0-.431-.649,2.005,2.005,0,0,0-1.424-.6,1.937,1.937,0,0,0-1.132.345,2.071,2.071,0,0,0-.735.9c-.045.115-.084.235-.12.358a1.375,1.375,0,0,0-.053.384v3.564a.459.459,0,0,1-.788.325.445.445,0,0,1-.14-.325V567.8a2.6,2.6,0,0,0-.2-.816,2.126,2.126,0,0,0-.437-.649,2,2,0,0,0-.63-.423,1.931,1.931,0,0,0-.769-.154,1.879,1.879,0,0,0-1.126.365,2.1,2.1,0,0,0-.729.92,2.163,2.163,0,0,0-.158.664v3.6a.464.464,0,0,1-.928,0Z" transform="translate(-493.896 -562.502)" fill="#fff"/>
      <path id="Path_23" data-name="Path 23" d="M592.014,570.238a.478.478,0,0,1,.12-.331.406.406,0,0,1,.317-.132.33.33,0,0,1,.233.079.574.574,0,0,1,.139.2,1.82,1.82,0,0,0,.656.872,1.764,1.764,0,0,0,.948.243,2.224,2.224,0,0,0,.471-.053,1.365,1.365,0,0,0,.443-.179,1.066,1.066,0,0,0,.331-.33.947.947,0,0,0,.132-.523,1.2,1.2,0,0,0-.125-.582,1.122,1.122,0,0,0-.345-.375,1.944,1.944,0,0,0-.5-.246c-.185-.061-.379-.118-.583-.171a7.878,7.878,0,0,1-.761-.251,2.791,2.791,0,0,1-.676-.37,1.774,1.774,0,0,1-.484-.555,1.625,1.625,0,0,1-.184-.807,1.541,1.541,0,0,1,.184-.733,2.066,2.066,0,0,1,.5-.616,2.315,2.315,0,0,1,.721-.415,2.43,2.43,0,0,1,.86-.154,2.228,2.228,0,0,1,.722.107,2.72,2.72,0,0,1,.53.238,1.549,1.549,0,0,1,.338.266,1.075,1.075,0,0,1,.144.184.8.8,0,0,1,.147.437.436.436,0,0,1-.1.292.4.4,0,0,1-.325.12.528.528,0,0,1-.237-.053.572.572,0,0,1-.213-.239.971.971,0,0,0-.363-.357,1.249,1.249,0,0,0-.644-.147,1.516,1.516,0,0,0-.51.087,1.465,1.465,0,0,0-.43.232,1.114,1.114,0,0,0-.292.337.809.809,0,0,0-.106.391.73.73,0,0,0,.126.43,1.064,1.064,0,0,0,.339.3,2.846,2.846,0,0,0,.463.22c.167.06.34.117.517.17a8.43,8.43,0,0,1,.888.327,2.854,2.854,0,0,1,.715.437,1.832,1.832,0,0,1,.477.623,2.037,2.037,0,0,1,.172.881,1.826,1.826,0,0,1-.191.847,1.991,1.991,0,0,1-.511.63,2.184,2.184,0,0,1-.749.391,3.061,3.061,0,0,1-.908.132,2.3,2.3,0,0,1-1.145-.265,2.743,2.743,0,0,1-.788-.648,2.941,2.941,0,0,1-.324-.485A.973.973,0,0,1,592.014,570.238Z" transform="translate(-492.942 -562.502)" fill="#fff"/>
      <path id="Path_24" data-name="Path 24" d="M603.125,563.132a.463.463,0,0,1,.927,0v2.186h1.271a.464.464,0,0,1,0,.928h-1.271v5.233a.463.463,0,0,1-.927,0v-5.233h-.214a.464.464,0,0,1,0-.928h.214Z" transform="translate(-492.128 -562.669)" fill="#fff"/>
      <path id="Path_25" data-name="Path 25" d="M606.91,568.45a3.542,3.542,0,0,1,.285-1.417,3.657,3.657,0,0,1,1.94-1.941,3.66,3.66,0,0,1,2.835,0,3.654,3.654,0,0,1,1.941,1.941,3.674,3.674,0,0,1,0,2.835,3.659,3.659,0,0,1-1.941,1.94,3.673,3.673,0,0,1-2.835,0,3.661,3.661,0,0,1-1.94-1.94A3.556,3.556,0,0,1,606.91,568.45Zm.927,0a2.66,2.66,0,0,0,.211,1.054,2.764,2.764,0,0,0,.583.868,2.725,2.725,0,0,0,.869.583,2.729,2.729,0,0,0,2.106,0,2.719,2.719,0,0,0,1.45-1.451,2.737,2.737,0,0,0,0-2.108,2.724,2.724,0,0,0-1.45-1.45,2.719,2.719,0,0,0-2.106,0,2.71,2.71,0,0,0-.869.583,2.742,2.742,0,0,0-.583.867A2.662,2.662,0,0,0,607.837,568.45Z" transform="translate(-491.78 -562.502)" fill="#fff"/>
      <path id="Path_26" data-name="Path 26" d="M625,569.987a1.9,1.9,0,0,1,.233-.285.438.438,0,0,1,.324-.126.346.346,0,0,1,.278.126.433.433,0,0,1,.106.285.8.8,0,0,1-.106.391,2.826,2.826,0,0,1-.278.4,3.566,3.566,0,0,1-1.232.993,3.434,3.434,0,0,1-1.483.318,3.56,3.56,0,0,1-1.419-.285,3.662,3.662,0,0,1-1.94-1.94,3.673,3.673,0,0,1,0-2.835,3.657,3.657,0,0,1,1.94-1.941,3.559,3.559,0,0,1,1.419-.286,3.618,3.618,0,0,1,1.416.279,3.3,3.3,0,0,1,1.564,1.371.855.855,0,0,1,.119.43c0,.266-.128.4-.384.4a.367.367,0,0,1-.312-.152c-.075-.1-.157-.2-.246-.313a3.424,3.424,0,0,0-.913-.8,2.45,2.45,0,0,0-1.245-.286,2.654,2.654,0,0,0-1.053.212,2.719,2.719,0,0,0-.869.583,2.747,2.747,0,0,0-.583.867,2.734,2.734,0,0,0,0,2.108,2.768,2.768,0,0,0,.583.868,2.734,2.734,0,0,0,.869.583,2.6,2.6,0,0,0,2.2-.067A2.524,2.524,0,0,0,625,569.987Z" transform="translate(-490.821 -562.502)" fill="#fff"/>
      <path id="Path_27" data-name="Path 27" d="M626.684,568.45a3.542,3.542,0,0,1,.285-1.417,3.657,3.657,0,0,1,1.94-1.941,3.657,3.657,0,0,1,2.834,0,3.652,3.652,0,0,1,1.943,1.941,3.673,3.673,0,0,1,0,2.835,3.7,3.7,0,0,1-.782,1.159,3.657,3.657,0,0,1-1.161.782,3.67,3.67,0,0,1-2.834,0,3.661,3.661,0,0,1-1.94-1.94A3.556,3.556,0,0,1,626.684,568.45Zm.926,0a2.666,2.666,0,0,0,.212,1.054,2.769,2.769,0,0,0,.583.868,2.721,2.721,0,0,0,.868.583,2.729,2.729,0,0,0,2.107,0,2.723,2.723,0,0,0,1.451-1.451,2.734,2.734,0,0,0,0-2.108,2.729,2.729,0,0,0-1.451-1.45,2.719,2.719,0,0,0-2.107,0,2.706,2.706,0,0,0-.868.583,2.748,2.748,0,0,0-.583.867A2.668,2.668,0,0,0,627.61,568.45Z" transform="translate(-490.237 -562.502)" fill="#fff"/>
      <path id="Path_28" data-name="Path 28" d="M642.206,568.617a3.559,3.559,0,0,1-.286,1.419,3.659,3.659,0,0,1-1.942,1.94,3.67,3.67,0,0,1-2.834,0,3.662,3.662,0,0,1-1.94-1.94,3.661,3.661,0,0,1,0-2.835,3.659,3.659,0,0,1,1.94-1.941,3.55,3.55,0,0,1,1.418-.286,3.311,3.311,0,0,1,1.549.412,3.558,3.558,0,0,1,1.166.861v-3.114a.438.438,0,0,1,.139-.323.448.448,0,0,1,.649,0,.439.439,0,0,1,.14.323Zm-.928,0a2.665,2.665,0,0,0-.212-1.053,2.722,2.722,0,0,0-1.45-1.45,2.716,2.716,0,0,0-2.106,0,2.726,2.726,0,0,0-1.452,1.45,2.733,2.733,0,0,0,0,2.108,2.746,2.746,0,0,0,.584.868,2.717,2.717,0,0,0,.868.583,2.732,2.732,0,0,0,2.106,0,2.719,2.719,0,0,0,1.45-1.451A2.663,2.663,0,0,0,641.277,568.617Z" transform="translate(-489.595 -562.669)" fill="#fff"/>
      <path id="Path_29" data-name="Path 29" d="M644.1,568.172a.737.737,0,0,0-.013.14v.138a2.662,2.662,0,0,0,.211,1.054,2.752,2.752,0,0,0,.584.868,2.72,2.72,0,0,0,.868.583,2.73,2.73,0,0,0,3.265-.915.816.816,0,0,1,.171-.192.391.391,0,0,1,.253-.086.442.442,0,0,1,.323.139.449.449,0,0,1,.139.326.627.627,0,0,1-.139.363,3.926,3.926,0,0,1-1.484,1.2,3.482,3.482,0,0,1-1.476.3,3.551,3.551,0,0,1-1.418-.285,3.663,3.663,0,0,1-1.94-1.94,3.662,3.662,0,0,1,0-2.835,3.658,3.658,0,0,1,1.94-1.941,3.551,3.551,0,0,1,1.418-.286,3.635,3.635,0,0,1,1.172.193,3.541,3.541,0,0,1,1.027.55,3.835,3.835,0,0,1,.808.855,3.452,3.452,0,0,1,.5,1.092.913.913,0,0,1,.027.094.707.707,0,0,1,.026.173.354.354,0,0,1-.138.318.6.6,0,0,1-.337.092Zm5.128-.927a2.5,2.5,0,0,0-1.02-1.119,2.766,2.766,0,0,0-1.4-.391,2.721,2.721,0,0,0-.617.079,2.854,2.854,0,0,0-.675.26,3.039,3.039,0,0,0-.644.464,2.3,2.3,0,0,0-.5.708Z" transform="translate(-488.951 -562.502)" fill="#fff"/>
    </g>
  </g>
</svg>
