<svg xmlns="http://www.w3.org/2000/svg" width="24.498" height="30" viewBox="0 0 24.498 30">
  <path id="New_order_Icon" data-name="New order Icon" d="M18.57,29.976a4.386,4.386,0,0,1-.47-.113,4.741,4.741,0,0,1-.778-.261,3.848,3.848,0,0,1-2.182-2.734c-.352-1.478-.706-2.956-1.037-4.44a2.84,2.84,0,0,1,.759-2.7c.4-.426.833-.823,1.233-1.251a.694.694,0,0,0,.177-.425q.017-2.839.006-5.679a1.856,1.856,0,0,1,.4-1.2,1.671,1.671,0,0,1,1.89-.564,1.732,1.732,0,0,1,1.161,1.693c.007,1.688,0,3.376,0,5.064v.73a8.38,8.38,0,0,1,1.241.013,1.512,1.512,0,0,1,.989.751,1.748,1.748,0,0,1,2.524.5,1.8,1.8,0,0,1,1.366-.292,1.743,1.743,0,0,1,1.382,1.675c.016,1.835.041,3.67-.008,5.5a3.847,3.847,0,0,1-1.458,2.86,4.259,4.259,0,0,1-1.9.845,5.825,5.825,0,0,1-1.081.039H19.256A4.486,4.486,0,0,1,18.57,29.976ZM16.279,19.721,16.2,19.68c-.2.213-.4.43-.6.638a2.04,2.04,0,0,0-.556,2.017q.5,2.135,1,4.27a3.026,3.026,0,0,0,3.1,2.449H23.1a3.045,3.045,0,0,0,3.2-3.2q0-2.417,0-4.833a2.144,2.144,0,0,0-.012-.321.779.779,0,0,0-1.556.082c-.01.2,0,.41,0,.615,0,.376-.171.579-.471.575s-.464-.209-.467-.585.006-.722,0-1.083a.8.8,0,0,0-.777-.827.786.786,0,0,0-.778.818c-.011.2,0,.41-.005.615-.008.354-.176.56-.457.566s-.475-.209-.481-.575c-.006-.351.006-.7,0-1.054a.8.8,0,0,0-.793-.867c-.462.008-.753.348-.761.887a6.835,6.835,0,0,1-.016.7.444.444,0,0,1-.491.4.437.437,0,0,1-.427-.437c-.008-.1,0-.195,0-.293q0-3.865,0-7.731a2.181,2.181,0,0,0-.033-.436.741.741,0,0,0-.64-.6.7.7,0,0,0-.772.4,1.5,1.5,0,0,0-.117.592q-.01,4.335-.006,8.669c0,.366-.179.587-.466.589s-.469-.214-.471-.581C16.278,20.671,16.279,20.2,16.279,19.721ZM2.751,22.287a1.5,1.5,0,0,0,1.691,1.692H12.5a2.582,2.582,0,0,0,.292-.009.461.461,0,0,0,.044-.909,1.622,1.622,0,0,0-.349-.023H4.459c-.627,0-.77-.145-.77-.778V1.73c0-.646.147-.793.791-.793H21c.645,0,.791.147.791.791V16.722a2.162,2.162,0,0,0,.006.322.441.441,0,0,0,.448.417.453.453,0,0,0,.479-.416,2.1,2.1,0,0,0,0-.263V1.641A1.488,1.488,0,0,0,21.071,0H4.408A1.5,1.5,0,0,0,2.751,1.67V22.287Zm16.3-14.332a1.209,1.209,0,0,0,.346-.038.422.422,0,0,0,.314-.47.433.433,0,0,0-.411-.422,1.731,1.731,0,0,0-.2-.006H11.4a1.522,1.522,0,0,0-.234.008.427.427,0,0,0-.393.405.422.422,0,0,0,.3.48,1.1,1.1,0,0,0,.344.043q1.917,0,3.833,0T19.054,7.955ZM9.7,17.6c.018-.352-.2-.593-.516-.556s-.394.255-.429.535a1.013,1.013,0,0,1-1.093.948,1.03,1.03,0,0,1-.967-.992,1.044,1.044,0,0,1,.988-1.067c.345-.038.536-.228.511-.509s-.267-.454-.621-.425a1.991,1.991,0,0,0-1.818,2.01A1.974,1.974,0,0,0,9.7,17.6Zm-.016-5.387c.052-.391-.083-.634-.376-.677s-.49.129-.548.526c0,.029-.01.058-.015.086a1.016,1.016,0,0,1-1.133.865,1.031,1.031,0,0,1,.034-2.052c.38-.044.569-.217.549-.5s-.267-.465-.643-.431a1.988,1.988,0,0,0-1.8,2.029,1.971,1.971,0,0,0,3.928.158Zm-1.41-3.84A1.974,1.974,0,0,0,9.7,6.568a.473.473,0,0,0-.41-.544c-.289-.032-.476.133-.523.458-.011.077-.02.155-.037.231A1.028,1.028,0,0,1,6.718,6.3a1.02,1.02,0,0,1,1.006-.851c.229-.024.422-.128.443-.349A.636.636,0,0,0,8,4.621a.7.7,0,0,0-.491-.095A1.971,1.971,0,0,0,5.759,6.562a2,2,0,0,0,1.971,1.9A5.21,5.21,0,0,0,8.275,8.372Zm8.764-2.424a1.29,1.29,0,0,0,.347-.031.421.421,0,0,0,.32-.464.416.416,0,0,0-.342-.418,1.272,1.272,0,0,0-.29-.022H11.4a1.273,1.273,0,0,0-.262.017.458.458,0,0,0-.032.889,1.38,1.38,0,0,0,.347.03q1.389,0,2.778,0C15.167,5.95,16.1,5.951,17.039,5.948ZM11.311,12.53c-.335,0-.529.168-.538.446a.471.471,0,0,0,.532.488q1.681.008,3.364,0a.489.489,0,0,0,.544-.483.477.477,0,0,0-.539-.451c-.565,0-1.131,0-1.7,0S11.867,12.527,11.311,12.53Zm.024-2c-.359,0-.556.166-.562.452s.2.481.568.483q1.652.006,3.3,0c.356,0,.58-.2.568-.489s-.218-.444-.574-.446c-.556,0-1.111,0-1.667,0S11.881,10.523,11.335,10.526Zm.007,5.511c-.361,0-.559.16-.569.444s.2.49.561.491q1.652.006,3.3,0c.357,0,.582-.2.575-.483s-.213-.45-.567-.452c-.555,0-1.111,0-1.666,0S11.888,16.035,11.342,16.037Zm-.065,2a.456.456,0,0,0-.5.449.462.462,0,0,0,.5.484q1.212.01,2.423,0a.476.476,0,0,0,.509-.484.468.468,0,0,0-.509-.449c-.4-.005-.8,0-1.2,0S11.686,18.035,11.277,18.04Z" transform="translate(-2.751)" fill="#fff"/>
</svg>
