<svg xmlns="http://www.w3.org/2000/svg" width="107.845" height="33" viewBox="0 0 107.845 33">
  <g id="Normal_screen_logo" data-name="Normal screen logo" transform="translate(-429.791 -505.988)">
    <g id="Group_2" data-name="Group 2" transform="translate(429.791 505.988)">
      <path id="Path_1" data-name="Path 1" d="M444.281,533.547c-.593-.352-1.125-.174-1.721.577a5.515,5.515,0,0,1-7.086,1.671,6.11,6.11,0,0,1-3.155-6.9,5.8,5.8,0,0,1,4.429-4.482,5.315,5.315,0,0,1,5.822,2.137c.607.787,1.256.944,1.844.476s.6-1.17.017-1.941a7.622,7.622,0,0,0-7.853-3.109,8.526,8.526,0,0,0-2.116,15.966,9.452,9.452,0,0,0,1.652.57,7.61,7.61,0,0,0,3.7.126,7.412,7.412,0,0,0,1.512-.494,7.947,7.947,0,0,0,2.593-1.922,5.626,5.626,0,0,0,.837-1.16A1.168,1.168,0,0,0,444.281,533.547Z" transform="translate(-429.791 -514.147)" fill="#fff"/>
      <path id="Path_2" data-name="Path 2" d="M542.479,515.76q0-1.692,0-3.384c0-1.4.005-3.059.01-4.451,0-.1,0-.205-.011-.3v-.183a1.384,1.384,0,0,0-.858-1.369,1.363,1.363,0,0,0-.438-.082,1.187,1.187,0,0,0-.61.152,1.416,1.416,0,0,0-.4.328,1.348,1.348,0,0,0-.386.984c.008,4.477.009,9.29.009,13.692q0,1.693,0,3.385,0,2.1-.01,4.188c0,.105,0,.206.011.3v.183a1.384,1.384,0,0,0,.858,1.369,1.339,1.339,0,0,0,.439.082,1.183,1.183,0,0,0,.611-.152,1.409,1.409,0,0,0,.395-.328,1.346,1.346,0,0,0,.386-.984C542.479,524.714,542.479,520.162,542.479,515.76Z" transform="translate(-486.427 -505.988)" fill="#fff"/>
      <g id="Group_1" data-name="Group 1" transform="translate(91.41 7.653)">
        <path id="Path_3" data-name="Path 3" d="M652.1,524.119c0,.007,0,.014,0,.02S652.1,524.126,652.1,524.119Z" transform="translate(-635.661 -522.977)" fill="#fff"/>
        <path id="Path_4" data-name="Path 4" d="M652.079,523.838c0,.024,0,.048,0,.072C652.082,523.886,652.082,523.861,652.079,523.838Z" transform="translate(-635.652 -522.832)" fill="#fff"/>
        <path id="Path_5" data-name="Path 5" d="M652.088,523.987c0,.021,0,.042,0,.064C652.092,524.03,652.089,524.008,652.088,523.987Z" transform="translate(-635.657 -522.909)" fill="#fff"/>
        <path id="Path_6" data-name="Path 6" d="M634.365,523.384c0-.023,0-.047,0-.07a1.964,1.964,0,0,0-.437-.95,1.8,1.8,0,0,0-.6-.428,1.894,1.894,0,0,0-.741-.17,1.76,1.76,0,0,0-1.286.674,2.317,2.317,0,0,0-.276.457c-1.54,3.337-3.121,6.724-4.651,10l-.081.172h0l-.013.028q-1.164-2.49-2.326-4.979-1.286-2.754-2.573-5.506a1.545,1.545,0,0,0-2.122-.676,1.659,1.659,0,0,0-.983,1.94,2.319,2.319,0,0,0,.158.381l.041.085,1.485,3.182c1.547,3.312,3.146,6.736,4.7,10.11a1.816,1.816,0,0,0,1.511,1.126c.039.005.079.007.118.009h0c.039,0,.079,0,.118-.009a1.769,1.769,0,0,0,1.251-.691,2.276,2.276,0,0,0,.26-.435c1.557-3.374,3.157-6.8,4.7-10.11l1.485-3.182c.013-.029.027-.057.041-.085a2.324,2.324,0,0,0,.158-.381,1.449,1.449,0,0,0,.058-.41c0-.006,0-.013,0-.019C634.369,523.425,634.366,523.4,634.365,523.384Z" transform="translate(-618.218 -521.764)" fill="#fff"/>
      </g>
      <path id="Path_7" data-name="Path 7" d="M507.551,522.376a8.35,8.35,0,1,0,0,16.7h.925a1.387,1.387,0,1,0,0-2.775h-.925a5.563,5.563,0,0,1,0-11.125,5.105,5.105,0,0,1,5.1,5.1V537.7a1.388,1.388,0,0,0,2.775,0v-7.426A7.88,7.88,0,0,0,507.551,522.376Z" transform="translate(-465.529 -514.426)" fill="#fff"/>
      <path id="Path_8" data-name="Path 8" d="M592.458,521.764a8.515,8.515,0,1,0,0,17.03,9.239,9.239,0,0,0,6.667-2.8,1.416,1.416,0,1,0-2.053-1.95,6.4,6.4,0,0,1-4.614,1.924,5.672,5.672,0,1,1,0-11.344,5.21,5.21,0,0,1,5.047,3.939h-6.947a1.415,1.415,0,0,0,0,2.83h8.515a1.42,1.42,0,0,0,1.415-1.416v-.153A8.035,8.035,0,0,0,592.458,521.764Z" transform="translate(-509.161 -514.111)" fill="#fff"/>
      <path id="Path_9" data-name="Path 9" d="M471.567,521.835l-.1,0-.1,0a8.025,8.025,0,0,0-5.988,2.684,8.469,8.469,0,0,0-.107,11.513,8,8,0,0,0,6.1,2.8l.1,0,.1,0a8.028,8.028,0,0,0,5.989-2.684,8.469,8.469,0,0,0,.107-11.513A8,8,0,0,0,471.567,521.835Zm4.462,11.685a1.564,1.564,0,0,0-.125.159c-.05.076-.1.148-.156.221a5.41,5.41,0,0,1-8.439.157c-.1-.122-.191-.246-.277-.378a1.419,1.419,0,0,0-.169-.207,5.664,5.664,0,0,1,.045-6.326,1.48,1.48,0,0,0,.124-.158c.05-.075.1-.148.156-.221a5.409,5.409,0,0,1,8.439-.157c.1.122.191.246.277.378a1.475,1.475,0,0,0,.169.207,5.664,5.664,0,0,1-.045,6.326Z" transform="translate(-446.926 -514.147)" fill="#fff"/>
      <path id="Path_10" data-name="Path 10" d="M563.575,506.973c0-.505-.619-.905-1.373-.905s-1.373.408-1.373.905V521.1c0,.021,0,.043,0,.065v1.276a5.055,5.055,0,0,1-5.05,5.049,5.508,5.508,0,1,1,0-11.015h.916a1.374,1.374,0,1,0,0-2.748h-.916a8.268,8.268,0,1,0,0,16.536,7.8,7.8,0,0,0,7.8-7.822v-7.352c0-.033,0-.066,0-.1Z" transform="translate(-490.404 -506.029)" fill="#fff"/>
    </g>
    <g id="Group_3" data-name="Group 3" transform="translate(463.906 533.485)">
      <path id="Path_11" data-name="Path 11" d="M500.417,562.877a.207.207,0,0,1,.356-.146.2.2,0,0,1,.062.146v.984h.573a.209.209,0,0,1,0,.418h-.573v2.355a.207.207,0,0,1-.355.146.2.2,0,0,1-.063-.146v-2.355h-.1a.209.209,0,0,1,0-.418h.1Z" transform="translate(-500.113 -562.669)" fill="#fff"/>
      <path id="Path_12" data-name="Path 12" d="M505.176,565.335a.2.2,0,0,1,.063-.146.2.2,0,0,1,.292,0,.2.2,0,0,1,.062.146v1.574a.9.9,0,0,0,.072.357.886.886,0,0,0,.2.29.951.951,0,0,0,.29.194.875.875,0,0,0,.354.071.9.9,0,0,0,.358-.071.951.951,0,0,0,.292-.194.888.888,0,0,0,.2-.29.9.9,0,0,0,.071-.357v-1.574a.209.209,0,0,1,.418,0v1.574a1.3,1.3,0,0,1-.105.518,1.331,1.331,0,0,1-.286.426,1.4,1.4,0,0,1-.426.29,1.321,1.321,0,0,1-1.041,0,1.351,1.351,0,0,1-.7-.716,1.3,1.3,0,0,1-.1-.518Z" transform="translate(-502.72 -563.934)" fill="#fff"/>
      <path id="Path_13" data-name="Path 13" d="M512.944,565.17a.209.209,0,0,1,.417,0v.357a1.374,1.374,0,0,1,.2-.247,1.621,1.621,0,0,1,.289-.233,1.754,1.754,0,0,1,.355-.173,1.142,1.142,0,0,1,.393-.069.224.224,0,0,1,.232.233.209.209,0,0,1-.071.164.264.264,0,0,1-.18.062,1.009,1.009,0,0,0-.491.122,1.332,1.332,0,0,0-.384.313,1.409,1.409,0,0,0-.25.432,1.372,1.372,0,0,0-.09.48v1.121a.209.209,0,0,1-.417,0Z" transform="translate(-506.719 -563.769)" fill="#fff"/>
      <path id="Path_14" data-name="Path 14" d="M518.29,565.17a.209.209,0,0,1,.417,0v.065a.708.708,0,0,1,.161-.176,1.068,1.068,0,0,1,.224-.137,1.259,1.259,0,0,1,.26-.087,1.31,1.31,0,0,1,.274-.03,1.241,1.241,0,0,1,.509.108,1.374,1.374,0,0,1,.424.29,1.389,1.389,0,0,1,.29.429,1.306,1.306,0,0,1,.107.521v1.58a.209.209,0,0,1-.417,0v-1.58a.9.9,0,0,0-.072-.358.917.917,0,0,0-.489-.489.869.869,0,0,0-.352-.072.842.842,0,0,0-.51.164,1.034,1.034,0,0,0-.337.414.848.848,0,0,0-.072.3v1.621a.214.214,0,0,1-.209.209.215.215,0,0,1-.208-.209Z" transform="translate(-509.472 -563.769)" fill="#fff"/>
      <path id="Path_15" data-name="Path 15" d="M526.045,563.263a.243.243,0,1,1,.071.179A.243.243,0,0,1,526.045,563.263Zm.035.984a.214.214,0,0,1,.209-.209.216.216,0,0,1,.209.209v2.563a.215.215,0,0,1-.209.209.213.213,0,0,1-.209-.209Z" transform="translate(-513.465 -562.846)" fill="#fff"/>
      <path id="Path_16" data-name="Path 16" d="M529.436,565.17a.216.216,0,0,1,.209-.209.214.214,0,0,1,.209.209v.065a.69.69,0,0,1,.161-.176,1.079,1.079,0,0,1,.224-.137,1.252,1.252,0,0,1,.259-.087,1.322,1.322,0,0,1,.275-.03,1.244,1.244,0,0,1,.509.108,1.387,1.387,0,0,1,.424.29,1.368,1.368,0,0,1,.289.429,1.3,1.3,0,0,1,.107.521v1.58a.2.2,0,0,1-.062.146.2.2,0,0,1-.292,0,.2.2,0,0,1-.062-.146v-1.58a.9.9,0,0,0-.072-.358.916.916,0,0,0-.489-.489.871.871,0,0,0-.352-.072.842.842,0,0,0-.51.164,1.034,1.034,0,0,0-.337.414.872.872,0,0,0-.071.3v1.621a.213.213,0,0,1-.209.209.215.215,0,0,1-.209-.209Z" transform="translate(-515.211 -563.769)" fill="#fff"/>
      <path id="Path_17" data-name="Path 17" d="M536.754,568.384a.214.214,0,0,1,.208-.209.173.173,0,0,1,.108.035.325.325,0,0,1,.078.083,1.359,1.359,0,0,0,.166.2,1.255,1.255,0,0,0,.391.263,1.229,1.229,0,0,0,.948,0,1.248,1.248,0,0,0,.391-.263,1.217,1.217,0,0,0,.263-.391,1.2,1.2,0,0,0,.1-.474v-.089l-.066.065a1.629,1.629,0,0,1-.519.349,1.651,1.651,0,0,1-1.275,0,1.655,1.655,0,0,1-.874-.873,1.659,1.659,0,0,1,0-1.276,1.653,1.653,0,0,1,.874-.874,1.621,1.621,0,0,1,1.794.355.5.5,0,0,1,.066.066v-.185a.214.214,0,0,1,.209-.209.2.2,0,0,1,.146.063.2.2,0,0,1,.064.146v2.462a1.591,1.591,0,0,1-.129.638,1.646,1.646,0,0,1-.874.873,1.644,1.644,0,0,1-1.275,0,1.658,1.658,0,0,1-.525-.355,1.325,1.325,0,0,1-.214-.268A.226.226,0,0,1,536.754,568.384Zm.2-1.938a1.2,1.2,0,0,0,.1.474,1.215,1.215,0,0,0,.653.653,1.229,1.229,0,0,0,.948,0,1.222,1.222,0,0,0,.653-.653,1.224,1.224,0,0,0,0-.948,1.224,1.224,0,0,0-.653-.653,1.223,1.223,0,0,0-.948,0,1.229,1.229,0,0,0-.391.262,1.216,1.216,0,0,0-.262.39A1.2,1.2,0,0,0,536.957,566.446Z" transform="translate(-518.868 -563.769)" fill="#fff"/>
      <path id="Path_18" data-name="Path 18" d="M552.477,565.345a1.593,1.593,0,0,1-.129.638,1.646,1.646,0,0,1-.874.873,1.652,1.652,0,0,1-1.275,0,1.648,1.648,0,0,1-.873-.873,1.647,1.647,0,0,1,0-1.276,1.646,1.646,0,0,1,.873-.874,1.6,1.6,0,0,1,.638-.129,1.489,1.489,0,0,1,.7.185,1.6,1.6,0,0,1,.525.388v-1.4a.209.209,0,0,1,.418,0Zm-.418,0a1.2,1.2,0,0,0-.1-.474,1.225,1.225,0,0,0-.653-.653,1.223,1.223,0,0,0-.948,0,1.216,1.216,0,0,0-.391.263,1.245,1.245,0,0,0-.263.39,1.23,1.23,0,0,0,0,.948,1.253,1.253,0,0,0,.263.39,1.222,1.222,0,0,0,.391.262,1.229,1.229,0,0,0,.948,0,1.224,1.224,0,0,0,.653-.653A1.2,1.2,0,0,0,552.06,565.345Z" transform="translate(-525.386 -562.669)" fill="#fff"/>
      <path id="Path_19" data-name="Path 19" d="M558.169,565.17a.207.207,0,0,1,.355-.146.2.2,0,0,1,.062.146v.357a1.383,1.383,0,0,1,.2-.247,1.569,1.569,0,0,1,.289-.233,1.751,1.751,0,0,1,.355-.173,1.146,1.146,0,0,1,.393-.069.224.224,0,0,1,.232.233.209.209,0,0,1-.071.164.263.263,0,0,1-.179.062,1.008,1.008,0,0,0-.491.122,1.349,1.349,0,0,0-.385.313,1.429,1.429,0,0,0-.25.432,1.372,1.372,0,0,0-.09.48v1.121a.213.213,0,0,1-.208.209.215.215,0,0,1-.209-.209Z" transform="translate(-530.005 -563.769)" fill="#fff"/>
      <path id="Path_20" data-name="Path 20" d="M563.337,566.321a.294.294,0,0,0-.006.063v.062a1.2,1.2,0,0,0,.1.474,1.243,1.243,0,0,0,.262.391,1.223,1.223,0,0,0,.391.262,1.228,1.228,0,0,0,1.469-.412.36.36,0,0,1,.078-.086.174.174,0,0,1,.114-.039.2.2,0,0,1,.146.063.2.2,0,0,1,.062.146.285.285,0,0,1-.062.164,1.7,1.7,0,0,1-.176.2,1.638,1.638,0,0,1-.492.34,1.572,1.572,0,0,1-.665.137,1.6,1.6,0,0,1-.638-.128,1.648,1.648,0,0,1-.873-.873,1.647,1.647,0,0,1,0-1.276,1.646,1.646,0,0,1,.873-.874,1.6,1.6,0,0,1,.638-.129,1.637,1.637,0,0,1,.528.087,1.6,1.6,0,0,1,.462.247,1.748,1.748,0,0,1,.363.385,1.577,1.577,0,0,1,.227.491c0,.012.008.026.012.042a.342.342,0,0,1,.012.078.16.16,0,0,1-.063.143.27.27,0,0,1-.152.041Zm2.308-.417a1.125,1.125,0,0,0-.459-.5,1.244,1.244,0,0,0-.632-.176,1.222,1.222,0,0,0-.277.035,1.288,1.288,0,0,0-.3.117,1.363,1.363,0,0,0-.29.209,1.042,1.042,0,0,0-.227.319Z" transform="translate(-532.447 -563.769)" fill="#fff"/>
      <path id="Path_21" data-name="Path 21" d="M573.812,567.543l-.065.065a1.632,1.632,0,0,1-.519.349,1.652,1.652,0,0,1-1.275,0,1.648,1.648,0,0,1-.873-.873,1.647,1.647,0,0,1,0-1.276,1.646,1.646,0,0,1,.873-.874,1.646,1.646,0,0,1,1.275,0,1.644,1.644,0,0,1,.874.874,1.6,1.6,0,0,1,.128.637v1.288a.209.209,0,0,1-.418,0Zm-2.445-1.1a1.2,1.2,0,0,0,.1.474,1.244,1.244,0,0,0,.262.391,1.223,1.223,0,0,0,.391.262,1.229,1.229,0,0,0,.948,0,1.226,1.226,0,0,0,.653-.653,1.22,1.22,0,0,0-.263-1.339,1.221,1.221,0,0,0-.39-.262,1.223,1.223,0,0,0-.948,0,1.217,1.217,0,0,0-.391.262,1.236,1.236,0,0,0-.262.39A1.2,1.2,0,0,0,571.367,566.446Z" transform="translate(-536.585 -563.769)" fill="#fff"/>
      <path id="Path_22" data-name="Path 22" d="M579.8,565.17a.209.209,0,0,1,.418,0v.06a1.013,1.013,0,0,1,.39-.307,1.2,1.2,0,0,1,.516-.117,1.225,1.225,0,0,1,.638.167,1.4,1.4,0,0,1,.465.453,1.286,1.286,0,0,1,.486-.453,1.373,1.373,0,0,1,.665-.167,1.259,1.259,0,0,1,.516.108,1.331,1.331,0,0,1,.42.29,1.347,1.347,0,0,1,.284.429,1.329,1.329,0,0,1,.1.521v1.58a.207.207,0,0,1-.355.146.2.2,0,0,1-.062-.146v-1.58a.9.9,0,0,0-.072-.358.952.952,0,0,0-.194-.292.9.9,0,0,0-1.15-.114.932.932,0,0,0-.331.406c-.02.052-.038.106-.054.161a.619.619,0,0,0-.024.173v1.6a.209.209,0,0,1-.418,0v-1.58a1.168,1.168,0,0,0-.092-.367.956.956,0,0,0-.2-.292.9.9,0,0,0-.283-.19.87.87,0,0,0-.346-.069.845.845,0,0,0-.507.164.943.943,0,0,0-.328.414.973.973,0,0,0-.071.3v1.621a.209.209,0,0,1-.418,0Z" transform="translate(-541.141 -563.769)" fill="#fff"/>
      <path id="Path_23" data-name="Path 23" d="M592.014,567.251a.215.215,0,0,1,.054-.149.183.183,0,0,1,.143-.059.148.148,0,0,1,.1.035.259.259,0,0,1,.063.089.819.819,0,0,0,.295.392.794.794,0,0,0,.426.109,1,1,0,0,0,.212-.024.613.613,0,0,0,.2-.081.478.478,0,0,0,.149-.148.426.426,0,0,0,.06-.235.54.54,0,0,0-.056-.262.5.5,0,0,0-.155-.169.874.874,0,0,0-.224-.111q-.125-.041-.262-.077a3.545,3.545,0,0,1-.343-.113,1.256,1.256,0,0,1-.3-.166.8.8,0,0,1-.218-.25.732.732,0,0,1-.083-.363.694.694,0,0,1,.083-.33.929.929,0,0,1,.224-.277,1.043,1.043,0,0,1,.325-.187,1.092,1.092,0,0,1,.387-.069,1,1,0,0,1,.325.048,1.223,1.223,0,0,1,.239.107.7.7,0,0,1,.152.12.488.488,0,0,1,.065.083.361.361,0,0,1,.066.2.2.2,0,0,1-.045.131.178.178,0,0,1-.146.054.238.238,0,0,1-.107-.024.257.257,0,0,1-.1-.108.437.437,0,0,0-.163-.16.562.562,0,0,0-.29-.066.682.682,0,0,0-.229.039.66.66,0,0,0-.194.1.5.5,0,0,0-.131.152.364.364,0,0,0-.048.176.328.328,0,0,0,.057.194.478.478,0,0,0,.152.137,1.278,1.278,0,0,0,.209.1c.075.027.153.053.232.077a3.78,3.78,0,0,1,.4.147,1.283,1.283,0,0,1,.322.2.824.824,0,0,1,.214.28.917.917,0,0,1,.078.4.822.822,0,0,1-.086.381.9.9,0,0,1-.23.283.983.983,0,0,1-.337.176,1.377,1.377,0,0,1-.408.059,1.034,1.034,0,0,1-.515-.119,1.236,1.236,0,0,1-.355-.292,1.319,1.319,0,0,1-.146-.218A.437.437,0,0,1,592.014,567.251Z" transform="translate(-547.431 -563.769)" fill="#fff"/>
      <path id="Path_24" data-name="Path 24" d="M602.753,562.877a.209.209,0,0,1,.417,0v.984h.572a.209.209,0,0,1,0,.418h-.572v2.355a.209.209,0,0,1-.417,0v-2.355h-.1a.209.209,0,0,1,0-.418h.1Z" transform="translate(-552.804 -562.669)" fill="#fff"/>
      <path id="Path_25" data-name="Path 25" d="M606.91,566.446a1.594,1.594,0,0,1,.128-.637,1.646,1.646,0,0,1,.873-.874,1.647,1.647,0,0,1,1.276,0,1.645,1.645,0,0,1,.874.874,1.653,1.653,0,0,1,0,1.276,1.647,1.647,0,0,1-.874.873,1.653,1.653,0,0,1-1.276,0,1.647,1.647,0,0,1-.873-.873A1.6,1.6,0,0,1,606.91,566.446Zm.417,0a1.2,1.2,0,0,0,.1.474,1.243,1.243,0,0,0,.262.391,1.225,1.225,0,0,0,.391.262,1.229,1.229,0,0,0,.948,0,1.223,1.223,0,0,0,.653-.653,1.231,1.231,0,0,0,0-.948,1.225,1.225,0,0,0-.653-.653,1.223,1.223,0,0,0-.948,0,1.219,1.219,0,0,0-.391.262,1.235,1.235,0,0,0-.262.39A1.2,1.2,0,0,0,607.327,566.446Z" transform="translate(-555.1 -563.769)" fill="#fff"/>
      <path id="Path_26" data-name="Path 26" d="M621.81,567.138a.856.856,0,0,1,.1-.128.2.2,0,0,1,.146-.057.155.155,0,0,1,.125.057.2.2,0,0,1,.047.128.361.361,0,0,1-.047.176,1.274,1.274,0,0,1-.125.182,1.605,1.605,0,0,1-.555.447,1.544,1.544,0,0,1-.667.143,1.6,1.6,0,0,1-.638-.128,1.648,1.648,0,0,1-.873-.873,1.653,1.653,0,0,1,0-1.276,1.646,1.646,0,0,1,.873-.874,1.6,1.6,0,0,1,.638-.129,1.629,1.629,0,0,1,.637.126,1.487,1.487,0,0,1,.7.617.385.385,0,0,1,.053.194c0,.12-.058.179-.173.179a.165.165,0,0,1-.14-.068c-.034-.046-.071-.092-.111-.141a1.541,1.541,0,0,0-.411-.36,1.1,1.1,0,0,0-.56-.129,1.194,1.194,0,0,0-.474.1,1.222,1.222,0,0,0-.653.653,1.23,1.23,0,0,0,0,.948,1.244,1.244,0,0,0,.262.391,1.23,1.23,0,0,0,.391.262,1.171,1.171,0,0,0,.989-.03A1.137,1.137,0,0,0,621.81,567.138Z" transform="translate(-561.428 -563.769)" fill="#fff"/>
      <path id="Path_27" data-name="Path 27" d="M626.684,566.446a1.594,1.594,0,0,1,.128-.637,1.646,1.646,0,0,1,.873-.874,1.646,1.646,0,0,1,1.275,0,1.644,1.644,0,0,1,.874.874,1.653,1.653,0,0,1,0,1.276,1.666,1.666,0,0,1-.352.521,1.647,1.647,0,0,1-.522.352,1.652,1.652,0,0,1-1.275,0,1.648,1.648,0,0,1-.873-.873A1.6,1.6,0,0,1,626.684,566.446Zm.417,0a1.2,1.2,0,0,0,.1.474,1.244,1.244,0,0,0,.263.391,1.223,1.223,0,0,0,.391.262,1.229,1.229,0,0,0,.948,0,1.226,1.226,0,0,0,.653-.653,1.23,1.23,0,0,0,0-.948,1.227,1.227,0,0,0-.653-.653,1.223,1.223,0,0,0-.948,0,1.217,1.217,0,0,0-.391.262,1.236,1.236,0,0,0-.263.39A1.2,1.2,0,0,0,627.1,566.446Z" transform="translate(-565.282 -563.769)" fill="#fff"/>
      <path id="Path_28" data-name="Path 28" d="M638.2,565.345a1.6,1.6,0,0,1-.129.638,1.646,1.646,0,0,1-.874.873,1.652,1.652,0,0,1-1.275,0,1.648,1.648,0,0,1-.873-.873,1.647,1.647,0,0,1,0-1.276,1.646,1.646,0,0,1,.873-.874,1.6,1.6,0,0,1,.638-.129,1.49,1.49,0,0,1,.7.185,1.6,1.6,0,0,1,.525.388v-1.4a.2.2,0,0,1,.063-.146.2.2,0,0,1,.292,0,.2.2,0,0,1,.063.146Zm-.418,0a1.2,1.2,0,0,0-.1-.474,1.225,1.225,0,0,0-.652-.653,1.223,1.223,0,0,0-.948,0,1.215,1.215,0,0,0-.391.263,1.228,1.228,0,0,0-.263.39,1.23,1.23,0,0,0,0,.948,1.236,1.236,0,0,0,.263.39,1.222,1.222,0,0,0,.391.262,1.229,1.229,0,0,0,.948,0,1.224,1.224,0,0,0,.652-.653A1.2,1.2,0,0,0,637.78,565.345Z" transform="translate(-569.521 -562.669)" fill="#fff"/>
      <path id="Path_29" data-name="Path 29" d="M643.587,566.321a.334.334,0,0,0-.006.063v.062a1.2,1.2,0,0,0,.1.474,1.238,1.238,0,0,0,.263.391,1.223,1.223,0,0,0,.391.262,1.228,1.228,0,0,0,1.469-.412.367.367,0,0,1,.077-.086.176.176,0,0,1,.114-.039.2.2,0,0,1,.146.063.2.2,0,0,1,.063.146.282.282,0,0,1-.063.164,1.768,1.768,0,0,1-.668.54,1.568,1.568,0,0,1-.664.137,1.6,1.6,0,0,1-.638-.128,1.648,1.648,0,0,1-.873-.873,1.647,1.647,0,0,1,0-1.276,1.646,1.646,0,0,1,.873-.874,1.6,1.6,0,0,1,.638-.129,1.635,1.635,0,0,1,.527.087,1.591,1.591,0,0,1,.462.247,1.726,1.726,0,0,1,.363.385,1.553,1.553,0,0,1,.227.491.4.4,0,0,1,.012.042.317.317,0,0,1,.012.078.159.159,0,0,1-.062.143.27.27,0,0,1-.152.041Zm2.308-.417a1.123,1.123,0,0,0-.459-.5,1.244,1.244,0,0,0-.632-.176,1.222,1.222,0,0,0-.278.035,1.284,1.284,0,0,0-.3.117,1.363,1.363,0,0,0-.29.209,1.033,1.033,0,0,0-.227.319Z" transform="translate(-573.767 -563.769)" fill="#fff"/>
    </g>
  </g>
</svg>
