<svg xmlns="http://www.w3.org/2000/svg" width="30" height="27.252" viewBox="0 0 30 27.252">
  <path id="Products_Icon" data-name="Products Icon" d="M287.73,14.33c.117-.67.241-1.338.348-2.009.363-2.273.717-4.547,1.08-6.82.081-.509.283-.641.79-.549a2.209,2.209,0,0,1,1.819,2.14c0,1.181-.04,2.362-.062,3.543,0,.106,0,.212,0,.329.25.071.5.119.731.209a2.84,2.84,0,0,1,1.575,1.491c.423.889.853,1.775,1.271,2.666a3.582,3.582,0,0,0,1.04,1.321,5.755,5.755,0,0,1,2.348,4.69c0,.048.009.1.017.19.176-.081.328-.156.484-.222a.505.505,0,0,1,.738.25q.735,1.512,1.447,3.036a.507.507,0,0,1-.278.749q-3.363,1.609-6.733,3.207a.5.5,0,0,1-.751-.271q-.726-1.5-1.432-3.011a.5.5,0,0,1,.274-.745.38.38,0,0,0,.251-.377c.005-.254.032-.507.044-.76a1.59,1.59,0,0,0-.421-1.121c-1.085-1.307-2.161-2.621-3.246-3.928a5.724,5.724,0,0,1-1.281-2.966,2.094,2.094,0,0,0-.052-.221ZM290.1,6.069c-.014.058-.024.085-.028.113q-.523,3.279-1.044,6.558a14.064,14.064,0,0,0-.277,2,4.469,4.469,0,0,0,1.085,2.96q1.617,1.95,3.228,3.9a2.472,2.472,0,0,1,.614,1.21c.05.349.049.7.072,1.078,1.251-.6,2.493-1.181,3.727-1.782a.385.385,0,0,0,.145-.281,4.65,4.65,0,0,0-1.8-4.279,5.359,5.359,0,0,1-1.547-1.987c-.4-.886-.822-1.768-1.271-2.633a1.691,1.691,0,0,0-1.875-.881c.049.108.1.213.144.316q.881,1.849,1.76,3.7c.167.354.09.651-.19.78s-.548,0-.72-.356c-.146-.3-.287-.6-.429-.9q-.824-1.729-1.647-3.459c-.256-.538-.169-.757.379-.961a.3.3,0,0,0,.108-.044c.055-.055.142-.119.144-.182.035-1.3.075-2.6.079-3.893A1.108,1.108,0,0,0,290.1,6.069Zm4.21,21.383,5.942-2.829L299.2,22.41l-5.939,2.831Zm12.476-5.92a6.2,6.2,0,0,1,.4-2.34,5.79,5.79,0,0,1,1.865-2.469,3.986,3.986,0,0,0,1.18-1.5c.371-.806.773-1.6,1.14-2.405a2.919,2.919,0,0,1,2.249-1.8c.037-.007.073-.022.132-.04,0-.1,0-.209,0-.315-.023-1.152-.065-2.3-.065-3.456a2.213,2.213,0,0,1,1.917-2.265.505.505,0,0,1,.67.461c.16.932.3,1.867.453,2.8.322,2.032.658,4.063.955,6.1a4.793,4.793,0,0,1-.634,3.041,10.95,10.95,0,0,1-1.088,1.518c-.838,1.042-1.669,2.093-2.562,3.086a2.393,2.393,0,0,0-.642,2.092c.035.232.063.41.319.521a.473.473,0,0,1,.233.691q-.717,1.537-1.459,3.063c-.166.339-.421.392-.818.2q-2.062-.976-4.121-1.96-1.213-.578-2.429-1.156c-.469-.224-.55-.447-.33-.912q.652-1.374,1.31-2.745c.257-.539.452-.608.99-.354C306.55,21.43,306.648,21.47,306.788,21.532Zm8.581-15.466a1.239,1.239,0,0,0-.68,1.2c.022,1.19.061,2.381.082,3.572a.309.309,0,0,0,.252.327c.562.2.652.422.4.949q-1.024,2.151-2.05,4.3a1.622,1.622,0,0,1-.143.254.484.484,0,0,1-.623.157.475.475,0,0,1-.255-.567,1.735,1.735,0,0,1,.134-.323q.855-1.8,1.71-3.59c.049-.1.09-.208.136-.317a1.8,1.8,0,0,0-1.984,1.086q-.63,1.3-1.243,2.614a4.806,4.806,0,0,1-1.387,1.748,4.734,4.734,0,0,0-1.893,4.332.369.369,0,0,0,.243.349c1.155.543,2.306,1.1,3.459,1.644.06.029.124.05.206.083,0-.1.006-.173,0-.246a2.61,2.61,0,0,1,.615-1.984q.793-.958,1.585-1.919c.673-.823,1.38-1.623,2-2.483a3.769,3.769,0,0,0,.761-2.735C316.3,11.711,315.822,8.914,315.369,6.066ZM305.206,24.623l5.944,2.829L312.2,25.24l-5.94-2.83Zm3.886-16.89q0,1.86,0,3.719c0,.544-.069.642-.574.8-1.817.586-3.633,1.177-5.455,1.749a1.147,1.147,0,0,1-.649.006c-1.84-.578-3.674-1.177-5.51-1.77-.453-.147-.534-.258-.534-.743q0-3.792,0-7.585c0-.474.085-.585.546-.734,1.827-.59,3.652-1.185,5.484-1.759a1.207,1.207,0,0,1,.674,0C304.9,2,306.73,2.6,308.557,3.185c.455.147.534.255.535.741Q309.093,5.83,309.092,7.733Zm-6.9,5.148a1.083,1.083,0,0,0,.029-.162c0-2.188,0-4.375.006-6.563,0-.189-.109-.22-.243-.263q-1.434-.461-2.866-.924c-.565-.182-1.13-.36-1.711-.546a1.745,1.745,0,0,0-.023.192c0,2.168,0,4.335-.005,6.5,0,.188.076.247.237.3,1.384.44,2.765.889,4.148,1.334C301.9,12.794,302.039,12.835,302.192,12.881Zm5.886-8.455c-.121.033-.205.051-.287.078-1.42.457-2.837.921-4.259,1.369a.349.349,0,0,0-.3.4c.011,2.1.006,4.2.006,6.3v.308c.127-.033.212-.051.294-.077,1.428-.46,2.855-.926,4.287-1.376a.318.318,0,0,0,.264-.368c-.008-2.109-.005-4.219-.005-6.328Zm-9.526-.716c.126.049.177.071.229.088,1.26.408,2.52.818,3.784,1.216A.689.689,0,0,0,302.954,5c1.217-.384,2.431-.777,3.645-1.169.085-.028.166-.064.313-.121-1.4-.452-2.727-.881-4.053-1.3a.44.44,0,0,0-.254,0C301.279,2.828,299.954,3.257,298.552,3.71Z" transform="translate(-287.73 -1.374)" fill="#fff"/>
</svg>
