<svg xmlns="http://www.w3.org/2000/svg" width="30" height="29.998" viewBox="0 0 30 29.998">
  <g id="Requests_Icon" data-name="Requests Icon" transform="translate(-193.828 -0.001)">
    <path id="Path_43" data-name="Path 43" d="M221.78,23.889h-25.9c-.728,0-.974-.244-.974-.964V4.564c0-.718.253-.972.968-.972h9.072V2.524l-.08,0h-1.015q-4.06,0-8.122,0a2.093,2.093,0,0,0-.53.058,1.781,1.781,0,0,0-1.365,1.886V18.473q0,2.28,0,4.56a1.844,1.844,0,0,0,2.022,1.942h.007q2.673,0,5.347,0h2.668v1.434h-1.084c-.244,0-.488,0-.731,0-.483,0-.68.2-.682.687q0,1.1,0,2.21c0,.5.2.692.705.692q6.75,0,13.5,0c.506,0,.7-.194.705-.693q0-.666,0-1.332V27.39c0-.426-.025-.7-.154-.828s-.4-.154-.823-.154h-1.517V24.974h2.256c1.886,0,3.836,0,5.754-.011a2.9,2.9,0,0,0,1.047-.213,1.844,1.844,0,0,0,.982-1.277v-6.5h-1.073V22.9C222.755,23.647,222.518,23.889,221.78,23.889Zm-16.8,1.1h7.7v1.4h-7.7Zm10.213,2.514v1.4H202.462v-1.4Z" fill="#fff"/>
    <path id="Path_44" data-name="Path 44" d="M206.186,13.724c-.625.64-1.269,1.284-1.892,1.906l-.734.734a1.564,1.564,0,0,0-.18.2.54.54,0,0,0-.083.516.532.532,0,0,0,.4.323,1.736,1.736,0,0,0,.361.026H214.9a8.827,8.827,0,0,0,4.965-1.421,8.517,8.517,0,0,0,3.613-4.911,11.776,11.776,0,0,0,.251-1.245c.031-.193.063-.386.1-.577V8.1c-.035-.172-.067-.362-.1-.552a11.631,11.631,0,0,0-.247-1.207A8.508,8.508,0,0,0,219.833,1.4,8.456,8.456,0,0,0,215.856.041a.44.44,0,0,1-.119-.031L215.71,0h-1.164l-.216.032c-.184.026-.368.053-.552.083a8.6,8.6,0,0,0-5.958,3.851A8.648,8.648,0,0,0,206.4,8.932v.717c0,1.174,0,2.389-.009,3.584A.762.762,0,0,1,206.186,13.724Zm.977.564a1.022,1.022,0,0,0,.325-.8q0-.557,0-1.113c0-1.317-.01-2.678.021-4.017a7.55,7.55,0,0,1,5.628-7.01,7.631,7.631,0,0,1,8.658,3.659,7.724,7.724,0,0,1-.956,8.754,7.581,7.581,0,0,1-5.775,2.579q-1.905.006-3.812.005-1.5,0-3.008,0H205.6c-.043,0-.087,0-.148-.01l-.315-.027.139-.138.565-.567C206.293,15.144,206.722,14.713,207.163,14.288Z" fill="#fff"/>
    <path id="Path_45" data-name="Path 45" d="M203.431,5.026h-1.416q-1.886,0-3.77,0a2.206,2.206,0,0,0-.559.069,1.791,1.791,0,0,0-1.338,1.906q0,6.734,0,13.467a1.8,1.8,0,0,0,1.977,1.982h21.011a1.81,1.81,0,0,0,1.972-1.958c0-.76,0-1.519,0-2.279V16.99h-1.073v3.456c0,.673-.265.936-.945.936H198.369c-.692,0-.949-.261-.949-.963V7.07c0-.725.237-.959.975-.959h6.551V5.032c-.036,0-.068-.005-.1-.005Z" fill="#fff"/>
    <path id="Path_46" data-name="Path 46" d="M200.938,8.618h.874V7.555l-.36,0c-.321,0-.626-.009-.931.009A1.687,1.687,0,0,0,199.2,8.3a2.61,2.61,0,0,0-.344,1.726c0,.156.009.316.007.476h1.078V9.614C199.94,8.851,200.173,8.618,200.938,8.618Z" fill="#fff"/>
    <rect id="Rectangle_23" data-name="Rectangle 23" width="1.047" height="1.031" transform="translate(198.876 11.976)" fill="#fff"/>
    <path id="Path_47" data-name="Path 47" d="M216.053,11.955a.379.379,0,0,1-.312-.077.425.425,0,0,1-.1-.327c.009-1.04.007-2.1,0-3.12V7.664c0-.574-.179-.75-.764-.751-.461,0-.922,0-1.383,0a1.331,1.331,0,0,0-.155.012V8.007h1.213v3.946h-1.22V13h3.56V11.951l-.217,0C216.465,11.945,216.257,11.942,216.053,11.955Z" fill="#fff"/>
    <rect id="Rectangle_24" data-name="Rectangle 24" width="1.03" height="1.038" transform="translate(214.6 4.42)" fill="#fff"/>
  </g>
</svg>
