<svg xmlns="http://www.w3.org/2000/svg" width="30" height="29.976" viewBox="0 0 30 29.976">
  <g id="Responses_Icon" data-name="Responses Icon" transform="translate(-293.828 -0.012)">
    <path id="Path_48" data-name="Path 48" d="M303.6,11.644l.54.368c.075-.127.126-.223.186-.314a2.188,2.188,0,0,1,1.89-1.063,1.307,1.307,0,0,0,1.018-.435c-.008-.023-.009-.047-.02-.055a2.984,2.984,0,0,1-1.287-2.713,10.606,10.606,0,0,1,.054-1.144,2.893,2.893,0,0,1,5.749.414,10.719,10.719,0,0,1-.025,1.389,2.864,2.864,0,0,1-1.294,2.076,1.086,1.086,0,0,0,.881.457,2.3,2.3,0,0,1,2.179,1.306c.008.016.03.025.077.063l.5-.34-.231-.189A2.846,2.846,0,0,1,312.7,9.183a9.308,9.308,0,0,1,.056-1.476,2.876,2.876,0,0,1,3.055-2.391A2.909,2.909,0,0,1,318.5,8.1a10.661,10.661,0,0,1-.019,1.419,2.949,2.949,0,0,1-1.29,2.113,1.185,1.185,0,0,0,.936.454,2.236,2.236,0,0,1,2.314,2.394c0,.777,0,1.553,0,2.329,0,.43-.173.6-.609.6q-4.233,0-8.466,0c-.432,0-.6-.172-.6-.608s0-.862,0-1.31h-3.871v1.248c0,.518-.151.67-.661.671h-8.345c-.519,0-.671-.15-.671-.66,0-.786,0-1.572,0-2.358a2.229,2.229,0,0,1,2.252-2.3,1.278,1.278,0,0,0,.987-.431c-.007-.024-.006-.049-.017-.057a2.979,2.979,0,0,1-1.287-2.712,10.912,10.912,0,0,1,.057-1.174,2.894,2.894,0,0,1,5.743.381,10.676,10.676,0,0,1-.019,1.42A2.9,2.9,0,0,1,303.6,11.644Zm9.094,2.844c0-.6.025-1.188-.007-1.768a1.188,1.188,0,0,0-.928-1.069,1.079,1.079,0,0,0-1.1.221,2.728,2.728,0,0,1-3.666-.006,1.008,1.008,0,0,0-.835-.268,1.251,1.251,0,0,0-1.18,1.1c-.041.589-.009,1.183-.009,1.788Zm-14.5,1.93H305.9V15.47c-.477,0-.93.006-1.382,0a.481.481,0,0,1-.527-.527c-.008-.393,0-.786,0-1.178,0-.152,0-.3,0-.5l-.251.192a2.752,2.752,0,0,1-3.507-.126,1.048,1.048,0,0,0-.893-.274,1.252,1.252,0,0,0-1.147,1.168C298.168,14.946,298.187,15.671,298.187,16.418Zm13.562-.948v.949h7.719c0-.753.019-1.488-.006-2.22a1.189,1.189,0,0,0-.9-1.089,1.089,1.089,0,0,0-1.129.214,2.747,2.747,0,0,1-3.506.134l-.255-.192c0,.562,0,1.055,0,1.548s-.155.655-.644.656Zm-7.742-6.756-.02,0c0-.191.006-.382,0-.573a1.945,1.945,0,0,0-1.742-1.855A1.9,1.9,0,0,0,300.181,7.8a7.547,7.547,0,0,0-.058,1.412,1.927,1.927,0,0,0,3.82.345A7.06,7.06,0,0,0,304.007,8.714Zm13.545-.006h-.017c0-.192.006-.383,0-.574a1.947,1.947,0,0,0-1.747-1.85,1.9,1.9,0,0,0-2.06,1.517,7.565,7.565,0,0,0-.057,1.382,1.929,1.929,0,0,0,3.829.336A6.6,6.6,0,0,0,317.552,8.708ZM306.893,7.239c0,.171,0,.342,0,.513a1.943,1.943,0,0,0,1.755,1.9A1.893,1.893,0,0,0,310.708,8.1a6.231,6.231,0,0,0,.035-1.562,1.912,1.912,0,0,0-2.023-1.713,1.939,1.939,0,0,0-1.826,1.9C306.89,6.9,306.894,7.068,306.893,7.239Zm.785,3.914a1.765,1.765,0,0,0,2.284,0,.927.927,0,0,0-1.144-.532c-.135.037-.3-.035-.445-.034a.413.413,0,0,0-.261.075C307.955,10.814,307.821,10.989,307.678,11.153Zm9.08,1.457c-.163-.187-.283-.43-.473-.514a1.982,1.982,0,0,0-.691-.015c-.15,0-.3-.04-.448-.039a.4.4,0,0,0-.26.075c-.158.15-.291.324-.434.488A1.806,1.806,0,0,0,316.758,12.61Zm-15.886-.032a1.775,1.775,0,0,0,2.329.01c-.012-.016-.023-.033-.034-.049a1.158,1.158,0,0,0-1.127-.488c-.449.022-.8.045-1.052.443C300.968,12.525,300.924,12.542,300.872,12.578Z" fill="#fff"/>
    <path id="Path_49" data-name="Path 49" d="M301.57,28.051c0,.155,0,.283,0,.411a.5.5,0,0,1-.563.555c-.766,0-1.531,0-2.341,0,0,.161.006.307,0,.453a.477.477,0,0,1-.512.512q-1.905.009-3.81,0c-.342,0-.512-.2-.513-.572,0-.927,0-1.855,0-2.782q0-3.78,0-7.56c0-.556.139-.695.695-.695q3.144,0,6.289,0c.639,0,.748.108.758.755,0,.059,0,.118.01.212h.332c1.6,0,3.205,0,4.808,0a.828.828,0,0,1,.641.267q1.705,1.735,3.43,3.453a.383.383,0,0,0,.314.038q4.415-1.194,8.825-2.4c.359-.1.717-.2,1.083-.272a2.331,2.331,0,0,1,2.813,2.34c0,.081,0,.161,0,.242,0,.484-.061.577-.507.73q-7.079,2.434-14.158,4.866a3.218,3.218,0,0,0-.427.15,1.867,1.867,0,0,1-1.759.007c-.2-.095-.427-.126-.626-.22a7.4,7.4,0,0,0-3.489-.486C302.442,28.062,302.021,28.051,301.57,28.051Zm4.7-5.654c.086.082.166.156.244.233q1.047,1.047,2.1,2.1a.889.889,0,1,0,1.247-1.249c-1-1-1.992-2-3-2.988a.657.657,0,0,0-.414-.171c-1.532-.013-3.064-.008-4.6-.007-.087,0-.174.011-.254.016v6.757c.3,0,.569.02.838,0a10.388,10.388,0,0,1,5.094.835.871.871,0,0,0,.669,0q7.189-2.481,14.386-4.943c.276-.094.3-.232.264-.465a1.408,1.408,0,0,0-1.908-1.085c-3.039.825-6.075,1.663-9.117,2.481-.4.109-.784.184-.719.73,0,.009-.006.019-.009.029a1.834,1.834,0,0,1-3.039.863c-.823-.772-1.6-1.59-2.4-2.389a.267.267,0,0,1-.037-.078Zm-11.451-3.042v9.638h2.865V19.355Zm5.763,8.682V19.366h-1.9v8.671Z" fill="#fff"/>
    <path id="Path_50" data-name="Path 50" d="M309.347.012V.936h-.925V.012Z" fill="#fff"/>
    <path id="Path_51" data-name="Path 51" d="M323.806,15.647h-.929v-.929h.929Z" fill="#fff"/>
    <path id="Path_52" data-name="Path 52" d="M322.539,11.963l-.226-.89.923-.275.247.952Z" fill="#fff"/>
    <path id="Path_53" data-name="Path 53" d="M300.912,2.24l.853-.489.454.845-.8.463Z" fill="#fff"/>
    <path id="Path_54" data-name="Path 54" d="M315.994,1.8l.85.5-.514.816-.8-.467Z" fill="#fff"/>
    <path id="Path_55" data-name="Path 55" d="M295.576,7.948l.494-.856.814.51-.453.8Z" fill="#fff"/>
    <path id="Path_56" data-name="Path 56" d="M312.086,1.327l.227-.936.948.256-.286.923Z" fill="#fff"/>
    <path id="Path_57" data-name="Path 57" d="M306.582,1.131l-.155-.949L307.4.05l.1.957Z" fill="#fff"/>
    <path id="Path_58" data-name="Path 58" d="M295.372,10.966l-.233.89-.934-.211.243-.954Z" fill="#fff"/>
    <path id="Path_59" data-name="Path 59" d="M297.964,6.1l-.562.732-.785-.56.6-.78Z" fill="#fff"/>
    <path id="Path_60" data-name="Path 60" d="M319.762,6.186l.753-.6.594.784-.785.556Z" fill="#fff"/>
    <path id="Path_61" data-name="Path 61" d="M322.648,17.471l.13-.913.953.111-.136.973Z" fill="#fff"/>
    <path id="Path_62" data-name="Path 62" d="M322.933,9.858l-.9.328-.347-.85.882-.391Z" fill="#fff"/>
    <path id="Path_63" data-name="Path 63" d="M295.141,8.84l.875.392-.345.855-.9-.335Z" fill="#fff"/>
    <path id="Path_64" data-name="Path 64" d="M293.886,13.593l.128-.972.948.146-.113.909Z" fill="#fff"/>
    <path id="Path_65" data-name="Path 65" d="M317.663,2.858l.778.609-.617.739-.728-.564Z" fill="#fff"/>
    <path id="Path_66" data-name="Path 66" d="M314.7,2.235l-.848-.362.342-.9.909.38Z" fill="#fff"/>
    <path id="Path_67" data-name="Path 67" d="M294.991,17.368l-.95.169-.13-.976.951-.1Z" fill="#fff"/>
    <path id="Path_68" data-name="Path 68" d="M322.2,19.264l.258-.884.928.232-.263.946Z" fill="#fff"/>
    <path id="Path_69" data-name="Path 69" d="M304.781,1.541,304.5.623l.95-.255.216.934Z" fill="#fff"/>
    <path id="Path_70" data-name="Path 70" d="M319.856,4.843l-.66.607-.664-.644.615-.649Z" fill="#fff"/>
    <path id="Path_71" data-name="Path 71" d="M323.78,13.7l-.961.083-.111-.909.949-.149Z" fill="#fff"/>
    <path id="Path_72" data-name="Path 72" d="M299.31,3.393l.779-.6.563.782-.729.561Z" fill="#fff"/>
    <path id="Path_73" data-name="Path 73" d="M302.651,1.312l.909-.374.339.895-.846.358Z" fill="#fff"/>
    <path id="Path_74" data-name="Path 74" d="M310.269,1.022l.092-.955.97.124-.148.951Z" fill="#fff"/>
    <path id="Path_75" data-name="Path 75" d="M299.213,4.74l-.662.636-.655-.609.687-.7Z" fill="#fff"/>
    <path id="Path_76" data-name="Path 76" d="M293.856,14.6h.919v.921l-.919.043Z" fill="#fff"/>
    <path id="Path_77" data-name="Path 77" d="M322.137,8.054l-.857.442-.45-.8.819-.5Z" fill="#fff"/>
  </g>
</svg>
