<svg xmlns="http://www.w3.org/2000/svg" width="30" height="30" viewBox="0 0 30 30">
  <path id="Settings_Icon" data-name="Settings Icon" d="M0,18.048a.667.667,0,0,1,.628-.286c.31.014.622,0,.93,0l.375-1.395c-.282-.163-.568-.327-.853-.494-.361-.212-.418-.412-.214-.77q.552-.964,1.112-1.925a.46.46,0,0,1,.73-.2c.3.166.591.338.862.494L4.6,12.435c-.142-.247-.311-.539-.477-.833-.206-.366-.154-.558.211-.77q.949-.552,1.9-1.1c.363-.208.556-.153.771.21.139.235.261.481.417.7a.324.324,0,0,0,.272.1c.342-.073.676-.187,1.018-.261.165-.035.2-.113.193-.261-.008-.292-.007-.586,0-.878a.435.435,0,0,1,.469-.484q1.187-.015,2.372,0c.318,0,.474.177.484.5.008.283.01.566,0,.849-.006.165.042.24.216.275a7.216,7.216,0,0,1,.96.254c.185.064.262.007.342-.143.128-.241.267-.477.409-.71a.438.438,0,0,1,.685-.192q1.007.568,2,1.154a.456.456,0,0,1,.177.717c-.166.3-.338.59-.49.854l1.041,1.036c.241-.137.533-.307.828-.472.36-.2.559-.15.77.212q.552.949,1.1,1.9c.206.36.15.555-.214.769-.277.163-.556.322-.853.493l.372,1.4c.337,0,.668,0,1,0,.409.006.563.162.565.576,0,.732,0,1.464,0,2.2,0,.4-.158.551-.547.555-.264,0-.528.009-.791,0-.173-.008-.259.036-.3.224a7.535,7.535,0,0,1-.254.96c-.055.164-.028.249.121.327.25.133.494.276.736.422a.442.442,0,0,1,.188.688q-.57,1.006-1.154,2a.445.445,0,0,1-.691.187c-.306-.169-.607-.348-.892-.513l-1.022,1.052c.133.232.3.516.457.8.218.383.171.581-.2.8q-.948.553-1.9,1.1c-.357.2-.557.145-.769-.216-.163-.278-.322-.557-.5-.855-.234.065-.464.133-.7.2s-.451.114-.7.176c0,.317-.012.628,0,.938a.663.663,0,0,1-.287.627H9.2a.612.612,0,0,1-.3-.617c.017-.318,0-.637,0-.941l-1.4-.374c-.178.3-.35.609-.531.908a.448.448,0,0,1-.691.185q-1-.571-2-1.156a.442.442,0,0,1-.184-.69c.169-.307.348-.608.5-.878L3.573,25.4l-.406.228c-.144.083-.285.168-.43.249-.369.206-.56.157-.772-.207q-.55-.948-1.1-1.9c-.207-.361-.152-.56.205-.771.291-.171.583-.34.858-.5l-.376-1.4c-.318,0-.63-.013-.941.005A.607.607,0,0,1,0,20.8Zm6.4-7.393-1.352.78c.169.3.325.565.477.837a.483.483,0,0,1-.117.718q-.654.627-1.282,1.281c-.25.26-.406.3-.718.125-.277-.156-.551-.317-.839-.484l-.781,1.355c.29.168.551.319.811.472.342.2.379.348.265.727-.165.549-.32,1.1-.45,1.662-.1.425-.18.515-.628.516-.3,0-.6,0-.886,0v1.572c.342,0,.663,0,.984,0s.443.136.519.445c.144.586.295,1.17.464,1.748.11.375.07.522-.274.724-.259.153-.52.3-.8.468l.782,1.352c.305-.176.574-.333.846-.485a.472.472,0,0,1,.7.113q.641.66,1.3,1.3a.483.483,0,0,1,.109.72c-.152.27-.307.538-.473.828l1.35.78c.173-.3.332-.574.5-.847.178-.3.327-.337.66-.242q.884.254,1.777.473c.326.08.448.2.452.541,0,.32,0,.639,0,.97h1.572c0-.343,0-.672,0-1a.47.47,0,0,1,.423-.506c.6-.15,1.206-.308,1.8-.478.33-.094.481-.053.659.246.165.274.323.551.494.845l1.35-.781c-.168-.293-.324-.561-.476-.831a.485.485,0,0,1,.114-.719q.654-.629,1.283-1.281c.26-.271.4-.307.741-.117l.82.467.78-1.35c-.3-.172-.574-.33-.849-.494-.292-.175-.334-.331-.239-.662q.252-.885.476-1.777c.083-.331.2-.447.538-.452.319,0,.639,0,.969,0V18.644c-.318,0-.618,0-.918,0-.412,0-.5-.09-.6-.483q-.212-.864-.462-1.72c-.1-.359-.062-.506.267-.7.267-.157.534-.312.815-.476l-.781-1.35c-.3.173-.577.336-.856.491a.479.479,0,0,1-.695-.127Q16.39,13.625,15.735,13c-.259-.248-.3-.408-.131-.718.155-.277.317-.551.485-.843l-1.353-.782c-.168.289-.323.559-.482.826a.483.483,0,0,1-.679.26q-.87-.25-1.748-.47c-.376-.093-.468-.186-.47-.578,0-.308,0-.616,0-.93H9.785c0,.331,0,.642,0,.953,0,.346-.114.465-.44.548-.6.153-1.2.316-1.8.485a.466.466,0,0,1-.64-.237C6.735,11.237,6.576,10.958,6.4,10.655Zm22.888-.874a1.831,1.831,0,0,1-.212.374q-.985,1-1.988,1.988a.43.43,0,0,1-.671.005,1.945,1.945,0,0,1-.267-.27.428.428,0,0,0-.639-.132.288.288,0,0,0-.191.309,5.707,5.707,0,0,1,0,.585.4.4,0,0,1-.428.425q-1.434.012-2.869,0a.424.424,0,0,1-.45-.439,3.312,3.312,0,0,1,0-.527c.02-.207-.061-.3-.252-.388a.393.393,0,0,0-.521.114c-.636.654-.662.648-1.313,0q-.789-.786-1.576-1.572c-.318-.319-.315-.516.007-.842q.1-.1.207-.207c.254-.254.272-.4.055-.695a.32.32,0,0,0-.22-.09c-.194-.013-.39,0-.585-.008-.3-.017-.465-.159-.468-.453q-.016-1.42,0-2.841c0-.294.167-.433.469-.449a3.172,3.172,0,0,1,.5,0c.208.021.3-.066.388-.253a.379.379,0,0,0-.112-.524c-.633-.571-.626-.709-.013-1.3.544-.519,1.066-1.06,1.6-1.59.315-.312.507-.313.819-.009a1.342,1.342,0,0,1,.2.208c.187.285.417.267.661.1a.343.343,0,0,0,.143-.21c.02-.2,0-.41.009-.614A.439.439,0,0,1,22.047,0q1.405-.009,2.811,0a.424.424,0,0,1,.462.454,3.434,3.434,0,0,1,0,.527c-.022.2.07.28.243.364a.4.4,0,0,0,.546-.107c.623-.647.659-.638,1.291-.007.538.538,1.079,1.074,1.616,1.614a.467.467,0,0,1,.009.778,2.08,2.08,0,0,1-.251.246.384.384,0,0,0-.123.566c.085.159.16.242.346.227a3.821,3.821,0,0,1,.556,0,.418.418,0,0,1,.442.445q.012,1.421,0,2.84a.424.424,0,0,1-.437.453,3.421,3.421,0,0,1-.526,0,.339.339,0,0,0-.392.248.39.39,0,0,0,.107.522A7.191,7.191,0,0,1,29.288,9.781ZM26.7,1.824c-.124.144-.244.285-.366.423a.5.5,0,0,1-.681.108,5.138,5.138,0,0,0-.808-.336.513.513,0,0,1-.4-.563c0-.182,0-.365,0-.557h-2c0,.211,0,.4,0,.6a.487.487,0,0,1-.378.519,8.645,8.645,0,0,0-.862.358.485.485,0,0,1-.632-.112l-.383-.412L18.763,3.294c.1.1.227.219.359.333a.531.531,0,0,1,.126.729,5.226,5.226,0,0,0-.322.782.519.519,0,0,1-.563.405c-.184-.006-.367,0-.561,0V7.535c.211,0,.4.005.579,0a.507.507,0,0,1,.542.392,8.536,8.536,0,0,0,.346.835.489.489,0,0,1-.1.635l-.391.358,1.435,1.452c.119-.128.255-.281.4-.427a.46.46,0,0,1,.562-.1c.311.138.627.267.943.392a.456.456,0,0,1,.33.463c0,.211,0,.422,0,.629h2c0-.2,0-.373,0-.548a.513.513,0,0,1,.4-.565,5.034,5.034,0,0,0,.807-.336.514.514,0,0,1,.7.126l.327.381,1.45-1.455c-.111-.1-.246-.23-.383-.355a.5.5,0,0,1-.106-.681,6.091,6.091,0,0,0,.346-.835.478.478,0,0,1,.5-.365H29.1V5.542c-.207,0-.392,0-.576,0a.5.5,0,0,1-.542-.39,5.978,5.978,0,0,0-.348-.835.489.489,0,0,1,.113-.655l.412-.373Zm2.568,16.321-.6,1.448c.351.489.391.665.179.861s-.409.146-.805-.194c-.478.175-.933.331-1.377.514-.067.028-.109.184-.111.282a.485.485,0,0,1-.261.484.435.435,0,0,1-.615-.346,2.622,2.622,0,0,1,0-.376c-.27-.087-.525-.151-.765-.251s-.449-.23-.673-.347c-.478.384-.657.431-.869.225s-.162-.419.194-.841l-.612-1.464c-.273-.023-.678.055-.724-.44-.027-.289.167-.4.73-.465l.606-1.462c-.17-.2-.546-.45-.176-.841.2-.208.4-.139.816.213l1.451-.607c.067-.571.161-.726.46-.724s.413.176.446.724l1.471.6c.2-.159.437-.536.827-.192.224.2.175.363-.178.823.175.473.336.918.508,1.358a.255.255,0,0,0,.164.115c.1.025.216.007.318.032a.427.427,0,0,1-.021.835A3.49,3.49,0,0,1,29.268,18.145Zm-3.15-2.686A2.236,2.236,0,1,0,28.353,17.7,2.243,2.243,0,0,0,26.118,15.459Zm-14.6-1.341a5.4,5.4,0,0,1-.757,10.718A5.351,5.351,0,0,1,6.48,22.974a.448.448,0,0,0-.666-.107.453.453,0,0,0,.019.695,6.1,6.1,0,0,0,5.685,2.077,6.282,6.282,0,1,0-7.166-5.314,8.923,8.923,0,0,0,.428,1.544.409.409,0,0,0,.55.249.433.433,0,0,0,.263-.546c-.027-.094-.067-.184-.1-.275a5.435,5.435,0,0,1,5.069-7.291C10.882,14.042,11.2,14.065,11.52,14.118ZM14.811,18.2a4.262,4.262,0,0,0-1.045-1.805.421.421,0,0,0-.626-.033.432.432,0,0,0-.029.606c.04.055.087.106.131.158a3.474,3.474,0,0,1,.829,2.772A3.536,3.536,0,1,1,11.5,16.021c.361.092.6,0,.676-.261s-.085-.486-.455-.587a4.358,4.358,0,0,0-1.856-.1A4.417,4.417,0,1,0,14.811,18.2ZM26.931,6.975A3.509,3.509,0,0,0,24.487,3.2a3.458,3.458,0,0,0-2.643.228c-.2.1-.347.28-.26.494a.755.755,0,0,0,.38.342c.087.039.24-.042.353-.093a2.656,2.656,0,0,1,1.772-.172,2.622,2.622,0,1,1-3.244,2.292,5.3,5.3,0,0,1,.261-.952.435.435,0,0,0-.784-.373,1.561,1.561,0,0,0-.113.237,3.506,3.506,0,1,0,6.722,1.776ZM24.659,17.687a1.45,1.45,0,1,1,1.434,1.466A1.455,1.455,0,0,1,24.659,17.687Zm.88,0a.569.569,0,1,0,.577-.569A.576.576,0,0,0,25.539,17.686Z" transform="translate(0 0)" fill="#fff"/>
</svg>
