<svg xmlns="http://www.w3.org/2000/svg" width="29.999" height="30.014" viewBox="0 0 29.999 30.014">
  <g id="Summry_Icon" data-name="Summry Icon" transform="translate(-388.494 0.007)">
    <path id="Path_78" data-name="Path 78" d="M390.433,14.511A13.124,13.124,0,0,1,403.012,1.935c0-.449,0-.889,0-1.329s.17-.614.625-.613a15.011,15.011,0,1,1-15.143,15.13c0-.436.165-.608.6-.611S389.973,14.511,390.433,14.511Zm4.191,8.656c.05-.045.1-.089.151-.137q4.041-4.04,8.076-8.085a.609.609,0,0,0,.154-.392q.012-5.669.006-11.336c0-.1-.008-.2-.012-.293a12.05,12.05,0,0,0-8.375,20.243ZM404,14.486h13.518A14.015,14.015,0,0,0,404,.993Zm3.856,11.789a11.937,11.937,0,0,0,3.775-2.335L403.493,15.8l-8.135,8.134a11.9,11.9,0,0,0,3.782,2.333c0-1.147,0-2.245,0-3.343,0-.52.149-.67.659-.672h1.277v-.367c0-.967,0-1.935,0-2.9,0-.433.17-.6.606-.6q.832,0,1.663,0c.473,0,.632.161.633.637,0,.428,0,.857,0,1.3.467,0,.89,0,1.313,0,.455,0,.62.165.622.617,0,.43,0,.86,0,1.318h.809c1.127,0,1.127,0,1.127,1.112v2.908ZM404.774,15.49l7.655,7.658a12.073,12.073,0,0,0,3.154-7.658Zm-15.292,0a14.009,14.009,0,0,0,28,.01h-.916A13.07,13.07,0,0,1,404.13,28.049a12.618,12.618,0,0,1-8.412-2.563,12.972,12.972,0,0,1-5.295-9.995Zm13.509,11.6V19.376h-.934v7.632Zm1.936-.08v-5.7h-.947v5.775Zm1.011-3.773v3.615l.931-.234V23.238Zm-4.884,3.615V23.238h-.932v3.378Z" fill="#fff"/>
    <path id="Path_79" data-name="Path 79" d="M398.657,9.211v.424c.971.223,1.424.685,1.438,1.471h-.939a.513.513,0,0,0-.487-.456v.933c.941.177,1.454.72,1.437,1.512a1.49,1.49,0,0,1-1.438,1.43l-.022.452h-.95v-.448a1.46,1.46,0,0,1-1.184-.635,5.274,5.274,0,0,1-.341-.822h.931l.481.514.084-.06v-.937a1.361,1.361,0,0,1-1.119-.594,2.024,2.024,0,0,1-.3-.923c-.024-.747.522-1.262,1.424-1.424l.021-.437Zm-.98,2.374V10.65a.457.457,0,0,0-.468.458C397.188,11.37,397.36,11.538,397.677,11.585Zm.994,1.961c.3-.06.467-.216.461-.493a.456.456,0,0,0-.461-.47Z" fill="#fff"/>
    <path id="Path_80" data-name="Path 80" d="M413.659,9.181a4.356,4.356,0,1,1-4.316-4.349A4.359,4.359,0,0,1,413.659,9.181Zm-.968.033a3.387,3.387,0,1,0-3.439,3.36A3.4,3.4,0,0,0,412.691,9.214Z" fill="#fff"/>
    <path id="Path_81" data-name="Path 81" d="M408.823,12.076v-.453a1.434,1.434,0,0,1-1.128-.568,6.236,6.236,0,0,1-.412-.878h.955l.483.505.081-.063V9.7c-.946-.207-1.432-.709-1.433-1.48s.5-1.289,1.445-1.484V6.3h.962l.022.435c.941.19,1.43.692,1.424,1.466h-.931c-.064-.231-.177-.449-.493-.456v.939a1.379,1.379,0,0,1,1.161.636,1.978,1.978,0,0,1,.262.935c0,.728-.557,1.231-1.421,1.365l-.024.452ZM408.8,7.734c-.3.058-.467.215-.462.492a.458.458,0,0,0,.462.471Zm1,1.934v.962a.452.452,0,0,0,.463-.465C410.271,9.888,410.107,9.73,409.8,9.668Z" fill="#fff"/>
  </g>
</svg>
