<svg xmlns="http://www.w3.org/2000/svg" width="30" height="29.968" viewBox="0 0 30 29.968">
  <path id="Users_Icon" data-name="Users Icon" d="M114.063,29.984c-.136-.124-.322-.225-.4-.379a.409.409,0,0,1,.282-.531.452.452,0,0,1,.357.827c-.059.033-.122.056-.183.083ZM100,15.159c.037.044.071.089.11.13a.443.443,0,0,0,.67.018.464.464,0,0,0-.012-.634.451.451,0,0,0-.671.049,1.575,1.575,0,0,0-.1.144Zm7.051,7.308c-.267.266-.528.539-.786.8a3.013,3.013,0,1,0,.648.717l1.6-1.6q6.513,4.838,12.983-.006l1.6,1.6a3.025,3.025,0,1,0,.7-.759l-1.6-1.6a9.81,9.81,0,0,0,.146-13.107l1.631-1.626a3.034,3.034,0,0,0,3.767-4.722,3.019,3.019,0,0,0-3.918-.235,2.946,2.946,0,0,0-1.132,1.76,2.986,2.986,0,0,0,.536,2.477L121.62,7.772a9.819,9.819,0,0,0-13.28.025l-1.586-1.6a3.029,3.029,0,1,0-4.992-.314A2.952,2.952,0,0,0,103.39,7.2,3,3,0,0,0,106,6.883l1.638,1.642a1.342,1.342,0,0,0-.127.155c-.455.7-.92,1.4-1.347,2.118a.609.609,0,0,0,.037.531.5.5,0,0,0,.453.131A.7.7,0,0,0,107,11.1a8.884,8.884,0,1,1,6.833,12.664,8.6,8.6,0,0,1-7.224-5.9,8.349,8.349,0,0,1-.353-4.442c.071-.409-.042-.638-.336-.695s-.486.113-.555.523a9.663,9.663,0,0,0,1.729,7.489c.226.315.483.608.752.944C107.58,21.952,107.312,22.206,107.051,22.467ZM123.536,4.344a2.116,2.116,0,1,1,2.1,2.105A2.118,2.118,0,0,1,123.536,4.344Zm2.1,19.176a2.115,2.115,0,1,1-2.1,2.108A2.119,2.119,0,0,1,125.635,23.52Zm-21.26,4.23a2.115,2.115,0,0,1-.073-4.229,2.115,2.115,0,1,1,.073,4.229Zm-.012-21.3a2.116,2.116,0,1,1,2.1-2.108A2.122,2.122,0,0,1,104.363,6.449Zm8.208,8.84c-.068.039-.137.074-.205.112A5.424,5.424,0,0,0,109.7,18.91a1.724,1.724,0,0,0,.75,1.911,7.937,7.937,0,0,0,2.294.932.448.448,0,0,0,.255-.859c-.081-.033-.169-.047-.25-.08-.569-.228-1.145-.441-1.7-.7a.806.806,0,0,1-.471-.968A4.472,4.472,0,0,1,113.225,16a.545.545,0,0,1,.4.008,3.168,3.168,0,0,0,2.745,0,.554.554,0,0,1,.4-.014A4.483,4.483,0,0,1,119.388,19a.877.877,0,0,1-.508,1.159,8.42,8.42,0,0,1-3.819.97c-.315.007-.511.182-.516.442s.2.455.53.454a8.893,8.893,0,0,0,4.393-1.155,1.73,1.73,0,0,0,.825-1.983,5.41,5.41,0,0,0-2.678-3.5c-.081-.046-.161-.093-.259-.151a3.362,3.362,0,0,0,.765-2.413c-.024-.937,0-1.874-.006-2.811a2,2,0,0,0-2.086-2.079q-1.024-.008-2.05,0a2,2,0,0,0-2.093,2.1q-.008,1.538,0,3.075a2.014,2.014,0,0,0,.054.638c.177.518.4,1.021.609,1.559C112.6,15.264,112.588,15.28,112.571,15.289Zm4.564-1.534a2.209,2.209,0,0,1-4.345-.457,6.315,6.315,0,0,1,0-.848.336.336,0,0,1,.181-.235c.607-.214,1.216-.423,1.832-.607a2.458,2.458,0,0,1,2.3.506.332.332,0,0,1,.1.215c.016.165.005.332.005.5l.029,0A7.082,7.082,0,0,1,117.135,13.755Zm-4.341-3.889a1.081,1.081,0,0,1,1.084-1.025c.742-.016,1.484-.014,2.226,0a1.1,1.1,0,0,1,1.11,1.1c.015.36,0,.722,0,1.137l-.27-.13a3.2,3.2,0,0,0-2.446-.19c-.464.148-.927.3-1.39.452-.1.033-.2.062-.323.1C112.788,10.8,112.764,10.332,112.794,9.866Zm16.768,4.64a.44.44,0,0,0-.464.454.451.451,0,0,0,.9.029A.45.45,0,0,0,129.562,14.506Zm-2.27-6.563a.448.448,0,1,0,.895.02.458.458,0,0,0-.454-.467A.45.45,0,0,0,127.292,7.943ZM114.522.473a.457.457,0,0,0-.913,0,.457.457,0,0,0,.913,0Zm3.177.669a.468.468,0,0,0,.462-.431.456.456,0,0,0-.91-.047A.47.47,0,0,0,117.7,1.142Zm-9.367.685a.45.45,0,0,0,.442.446.461.461,0,0,0,.473-.448.452.452,0,0,0-.442-.447A.461.461,0,0,0,108.332,1.827Zm-6.411,7.831a.455.455,0,1,0-.909-.022.461.461,0,0,0,.442.457A.471.471,0,0,0,101.921,9.658Zm17.57,18.712a.453.453,0,1,0,.46.435A.451.451,0,0,0,119.491,28.37Zm-7.209.452a.454.454,0,1,0,.022.908.446.446,0,0,0,.423-.463A.453.453,0,0,0,112.282,28.822Zm16.251-8.928a.449.449,0,0,0-.456.437.455.455,0,0,0,.464.46.449.449,0,0,0-.008-.9Zm-.465-10.318a.462.462,0,0,0,.439.482.455.455,0,0,0,.023-.91A.456.456,0,0,0,128.068,9.576Zm-26.713,9.046a.446.446,0,1,0-.447.446A.451.451,0,0,0,101.355,18.622Zm-.779-5.9a.456.456,0,1,0-.007.912.452.452,0,0,0,.441-.453A.445.445,0,0,0,100.576,12.719Zm16.705,16.555a.449.449,0,1,0,.442-.454A.449.449,0,0,0,117.281,29.274Zm-.934-28.8a.455.455,0,0,0-.469-.456.445.445,0,0,0-.437.456.453.453,0,0,0,.906,0ZM112.269.244a.459.459,0,0,0-.466.432A.454.454,0,1,0,112.71.7.461.461,0,0,0,112.269.244Zm8.46,1.57a.448.448,0,1,0,.435-.455A.439.439,0,0,0,120.729,1.814Zm-18.8,18.536a.456.456,0,0,0-.469-.45.449.449,0,1,0,.469.45Zm9.013-19.2a.457.457,0,1,0-.913.02.457.457,0,0,0,.913-.02Zm-.878,27.675a.458.458,0,0,0,.442.454.452.452,0,1,0,0-.9A.436.436,0,0,0,110.064,28.823Zm19.82-12.017a.448.448,0,1,0-.439.458A.458.458,0,0,0,129.884,16.806Zm-29.426-5.429a.435.435,0,0,0,.435.451.448.448,0,1,0,.006-.9A.436.436,0,0,0,100.458,11.377Zm28.635,6.772a.451.451,0,0,0-.446.476.446.446,0,1,0,.446-.476Zm.01-7.264a.448.448,0,0,0-.461.46.441.441,0,0,0,.445.445.446.446,0,0,0,.448-.444A.452.452,0,0,0,129.1,10.885Zm-26.84,10.662a.453.453,0,1,0,0,.9.441.441,0,0,0,.44-.45A.452.452,0,0,0,102.263,21.547Zm19.384,6.62a.446.446,0,0,0-.423-.468.453.453,0,0,0-.48.444.447.447,0,0,0,.44.452A.442.442,0,0,0,121.647,28.167Zm6.1-6.624a.449.449,0,1,0,.018.9.437.437,0,0,0,.429-.457A.442.442,0,0,0,127.748,21.543ZM119.474.687a.446.446,0,0,0-.444.474.433.433,0,0,0,.464.421.438.438,0,0,0,.432-.454A.451.451,0,0,0,119.474.687Zm9.962,12a.433.433,0,0,0-.452.435.449.449,0,1,0,.452-.435ZM109.26,28.156a.453.453,0,0,0-.466-.456.446.446,0,0,0-.431.459.435.435,0,0,0,.449.438A.441.441,0,0,0,109.26,28.156Zm6.663.894a.451.451,0,0,0-.455.467.444.444,0,0,0,.459.431.436.436,0,0,0,.439-.449A.448.448,0,0,0,115.923,29.05ZM100.586,16.373a.444.444,0,0,0-.468.421.454.454,0,0,0,.446.477.441.441,0,0,0,.45-.439A.434.434,0,0,0,100.586,16.373ZM101.8,7.98a.431.431,0,0,0,.432.453.449.449,0,0,0,.467-.454.45.45,0,0,0-.9,0Z" transform="translate(-100 -0.016)" fill="#fff"/>
</svg>
