<svg xmlns="http://www.w3.org/2000/svg" width="30" height="29.437" viewBox="0 0 30 29.437">
  <path id="Vendors_Icon" data-name="Vendors Icon" d="M17.513,20.392A2.913,2.913,0,0,1,19.69,23.5q0,2.751,0,5.5c0,.553-.163.716-.717.716q-3.97,0-7.943,0c-.557,0-.72-.161-.721-.712q0-2.946,0-5.892a2.616,2.616,0,0,1,2.156-2.745,3.66,3.66,0,0,1-1.021-3.437,3.542,3.542,0,0,1,1.445-2.17,3.653,3.653,0,0,1,4.625,5.631Zm-1.373.995c.015.167.021.284.037.4.1.676.211,1.35.288,2.028a2.491,2.491,0,0,1-.009,1.015c-.265.8-.616,1.573-.925,2.359-.1.253-.245.442-.538.439s-.431-.2-.529-.45c-.3-.777-.629-1.545-.921-2.327a1.375,1.375,0,0,1-.064-.628c.117-.935.257-1.867.395-2.845h-.832a1.563,1.563,0,0,0-1.691,1.679q0,2.653,0,5.307c0,.094.008.189.012.29h7.273c0-1.874.028-3.728-.012-5.581a1.6,1.6,0,0,0-1.2-1.6A9.971,9.971,0,0,0,16.14,21.387Zm-3.668-3.133a2.572,2.572,0,0,0,5.049,0A3.784,3.784,0,0,1,15,17.408,3.935,3.935,0,0,1,12.472,18.254Zm.006-1.056a2.571,2.571,0,0,0,1.984-.714c.452-.417.625-.418,1.067-.007a2.6,2.6,0,0,0,1.987.723,2.567,2.567,0,0,0-5.038,0ZM15,25.7a6.633,6.633,0,0,1,.285-.7,1.7,1.7,0,0,0,.133-1.191c-.1-.522-.15-1.051-.227-1.577-.041-.28-.09-.56-.136-.839l-.1,0c-.027.119-.063.236-.081.355-.1.676-.136,1.366-.3,2.026A3.109,3.109,0,0,0,15,25.7ZM10.518,5.815a5.744,5.744,0,1,1,7.841,8.252l.589.821c.1-.074.181-.128.257-.187a6.777,6.777,0,0,0-5.288-12A6.9,6.9,0,0,0,9.17,13.038a4.606,4.606,0,0,0,1.942,1.885l.47-.9C9.2,12.7,8.346,8.483,10.518,5.815ZM22.3,25.548c0-.846,0-1.648,0-2.449,0-.506.175-.677.689-.678q1.416,0,2.831,0c.466,0,.647.184.648.652,0,.812,0,1.623,0,2.474.334,0,.645,0,.955,0,.408.006.6.194.607.6q.007,1.48,0,2.961c0,.408-.193.609-.592.61q-3.058,0-6.118,0a.522.522,0,0,1-.583-.586q-.007-1.5,0-2.994a.524.524,0,0,1,.582-.586C21.629,25.543,21.942,25.548,22.3,25.548Zm3.114-2.06H23.354v2.041H25.41Zm-1.565,3.126H21.8v2.044h2.045Zm3.118,2.048V26.617H24.92v2.045ZM1.969,11.8q0,2.865,0,5.732c0,.554.163.717.717.717q2.867,0,5.732,0h.31V17.2h-5.7V11.423l1.142,1.421.81-.652c-.7-.875-1.372-1.727-2.057-2.567a.528.528,0,0,0-.887.023c-.372.452-.734.914-1.1,1.371L0,12.193l.811.648,1.158-1.435Zm19.607,6.449q2.866,0,5.733,0c.555,0,.719-.162.72-.714V11.4l1.161,1.439.81-.65c-.706-.882-1.384-1.741-2.078-2.588a.516.516,0,0,0-.843.014c-.226.263-.436.54-.653.812l-1.409,1.761.811.65,1.137-1.408v5.791h-5.7v1.026ZM13.426,7.306h.533c0-.234-.01-.428,0-.621a1,1,0,0,1,.916-.94,1.029,1.029,0,0,1,1.137.762A.993.993,0,0,1,15.4,7.662a3.262,3.262,0,0,1-.43.149.588.588,0,0,0-.49.663c.012.325,0,.651,0,.977v1.477H15.52c0-.633.012-1.241-.006-1.848a.41.41,0,0,1,.305-.474,2,2,0,0,0,1.258-2.041A2.037,2.037,0,0,0,15.5,4.756a2.1,2.1,0,0,0-2.546,2.55ZM14.5,13.017h1v-1h-1ZM3.678,3.5A1.487,1.487,0,0,1,4.789,5.085V7.894c0,.282-.084.365-.366.365q-2.028,0-4.055,0C.084,8.259,0,8.177,0,7.9V4.888a1.336,1.336,0,0,1,1.1-1.4A1.869,1.869,0,0,1,.579,1.733,1.812,1.812,0,0,1,1.317.625,1.864,1.864,0,0,1,3.678,3.5Zm-.7.508c.008.086.011.145.019.2.049.345.108.689.147,1.036a1.289,1.289,0,0,1,0,.518c-.136.408-.315.8-.473,1.2-.051.129-.125.225-.274.224s-.22-.1-.271-.23c-.155-.4-.321-.789-.47-1.187a.712.712,0,0,1-.032-.321c.059-.477.131-.953.2-1.452H1.4a.8.8,0,0,0-.863.857q0,1.354,0,2.709c0,.048,0,.1.006.148H4.251c0-.956.014-1.9-.006-2.849a.818.818,0,0,0-.611-.819A5.087,5.087,0,0,0,2.977,4.007Zm-1.872-1.6a1.313,1.313,0,0,0,2.577,0,1.929,1.929,0,0,1-1.289-.431A2.012,2.012,0,0,1,1.105,2.408Zm0-.539A1.312,1.312,0,0,0,2.121,1.5c.23-.212.318-.213.544,0A1.327,1.327,0,0,0,3.68,1.87a1.31,1.31,0,0,0-2.572,0ZM2.395,6.208a3.263,3.263,0,0,1,.146-.355.871.871,0,0,0,.068-.608c-.049-.267-.077-.537-.116-.8-.021-.144-.046-.286-.07-.429l-.05,0c-.014.061-.033.121-.041.182-.05.345-.07.7-.153,1.033A1.593,1.593,0,0,0,2.395,6.208ZM28.889,3.5A1.487,1.487,0,0,1,30,5.085V7.894c0,.282-.084.365-.366.365q-2.028,0-4.055,0c-.284,0-.368-.082-.368-.363V4.888a1.335,1.335,0,0,1,1.1-1.4,1.871,1.871,0,0,1-.521-1.754A1.812,1.812,0,0,1,26.528.625,1.864,1.864,0,0,1,28.889,3.5Zm-.7.508c.008.086.011.145.019.2.049.345.108.689.147,1.036a1.27,1.27,0,0,1,0,.518c-.135.408-.314.8-.472,1.2-.051.129-.125.225-.274.224s-.22-.1-.271-.23c-.155-.4-.321-.789-.47-1.187a.7.7,0,0,1-.032-.321c.059-.477.131-.953.2-1.452h-.425a.8.8,0,0,0-.864.857q0,1.354,0,2.709c0,.048,0,.1.007.148h3.712c0-.956.014-1.9-.006-2.849a.818.818,0,0,0-.611-.819A5.111,5.111,0,0,0,28.188,4.007Zm-1.873-1.6a1.313,1.313,0,0,0,2.578,0A1.929,1.929,0,0,1,27.6,1.976,2.013,2.013,0,0,1,26.315,2.408Zm0-.539A1.309,1.309,0,0,0,27.331,1.5c.231-.212.319-.213.545,0a1.325,1.325,0,0,0,1.015.369,1.311,1.311,0,0,0-2.573,0Zm1.288,4.339a3.5,3.5,0,0,1,.145-.355.86.86,0,0,0,.068-.608c-.049-.267-.076-.537-.115-.8-.021-.144-.047-.286-.07-.429l-.05,0c-.014.061-.033.121-.042.182a10.4,10.4,0,0,1-.152,1.033A1.593,1.593,0,0,0,27.606,6.208Z" transform="translate(0 -0.282)" fill="#fff"/>
</svg>
