<svg xmlns="http://www.w3.org/2000/svg" width="30" height="26.862" viewBox="0 0 30 26.862">
  <path id="Invetory_Icon" data-name="Invetory Icon" d="M5.715,2.539a.532.532,0,0,0,.017-.09c-.046-.878.217-.892.922-.877s1.4,0,2.105,0c.529,0,.659.133.665.67,0,.091,0,.181,0,.285a4.631,4.631,0,0,1,.494.061.827.827,0,0,1,.647.585c.056.189.152.227.327.224.579-.008,1.159,0,1.739,0,.5,0,.635.139.636.635q0,3.082,0,6.164v.393h.368c.67,0,1.341,0,2.012,0,1.108-.005,2.216-.023,3.324-.022,1.83,0,3.661.015,5.491.023.567,0,.683.116.683.675v7.78h1.22c1.007,0,2.014,0,3.02,0,.45,0,.613.159.614.6q0,4.088,0,8.177c0,.449-.159.6-.609.6H.617C.151,28.43,0,28.279,0,27.8q0-4.057,0-8.116c0-.49.151-.642.636-.643l3.844-.008h.371c0-.509.009-.994-.012-1.478,0-.054-.169-.142-.261-.144-.661-.012-1.322-.006-1.983-.007-.576,0-.7-.127-.7-.694V4.082c0-.555.128-.683.679-.684.57,0,1.14.006,1.709-.007a.358.358,0,0,0,.276-.145.971.971,0,0,1,1.03-.691A1.11,1.11,0,0,0,5.715,2.539ZM2.841,16.46h9.473V4.335h-1.69c0,.265.006.517,0,.768-.01.375-.17.545-.543.546q-2.5.007-5,0c-.372,0-.535-.173-.547-.547-.008-.25,0-.5,0-.765H2.841ZM19.347,27.5V20.016H16.719c0,.64,0,1.259,0,1.877,0,.453-.153.6-.6.607-.63,0-1.261,0-1.891,0-.918,0-.945-.027-.945-.936v-1.55H10.657V27.5ZM29.048,20H26.411c0,.672,0,1.322,0,1.972a.47.47,0,0,1-.525.531c-.793.007-1.586.006-2.379,0-.368,0-.538-.173-.544-.547-.009-.539,0-1.078,0-1.617,0-.107-.01-.214-.016-.32H20.331v7.479h8.717ZM7.04,20.006c0,.6,0,1.179,0,1.756,0,.616-.12.739-.723.739H4.3c-.594,0-.715-.121-.716-.711v-1.8H.961v7.5h8.71V20.006ZM21.6,11.532a.664.664,0,0,0-.019.092c0,.6,0,1.2-.006,1.8,0,.455-.152.6-.6.607s-.895,0-1.342,0c-1.653,0-1.513.173-1.511-1.5,0-.332,0-.663,0-1H15.5v7.482h8.707V11.532ZM5.789,19.017H14.5V11.542H13.267v.389q0,2.362,0,4.726c0,.646-.1.751-.738.751H5.789Zm3.894-15.5L9.612,3.46c-.063.062-.163.113-.182.186-.107.419-.191.5-.627.5q-1.218,0-2.438,0c-.45,0-.519-.064-.635-.518-.015-.055-.1-.094-.146-.14-.04.046-.113.091-.114.139-.01.352,0,.7,0,1.066H9.683Zm9.374,9.571h1.566V11.537H19.057Zm-3.276,6.938H14.216v1.531h1.565ZM4.533,20.009v1.539H6.082V20.009Zm19.385,0v1.54h1.551v-1.54ZM8.462,3.2v-.69H6.686V3.2Zm-1.486,3.8c-.351,0-.551.181-.542.473s.2.441.543.442q1.858,0,3.719,0c.352,0,.565-.177.564-.457s-.213-.457-.565-.459c-.609,0-1.219,0-1.829,0C8.236,7.008,7.606,7.005,6.976,7.009Zm3.718,8.486c.353,0,.565-.177.566-.456s-.213-.461-.563-.462q-1.86,0-3.719,0c-.352,0-.552.182-.544.474s.2.442.541.444c.609,0,1.219,0,1.829,0C9.434,15.5,10.064,15.5,10.694,15.495Zm0-5.047c.353,0,.565-.18.564-.458s-.217-.464-.564-.465q-1.845-.006-3.688,0c-.373,0-.581.183-.573.481s.2.442.573.444c.62,0,1.239,0,1.859,0S10.085,10.453,10.695,10.448ZM6.974,12.057c-.347,0-.533.165-.54.445s.2.477.545.478q1.859.006,3.718,0c.346,0,.564-.19.563-.467s-.213-.454-.567-.456c-.61-.005-1.22,0-1.829,0C8.234,12.055,7.6,12.051,6.974,12.057Zm-1.306-.49a.716.716,0,0,0-.48.016.945.945,0,0,0-.312.283.277.277,0,0,1-.361.091.449.449,0,0,0-.613.4,1.075,1.075,0,0,0,.8.811,2.406,2.406,0,0,0,1.2-1.306C5.858,11.8,5.79,11.62,5.668,11.567ZM3.974,7.122a.637.637,0,0,0,.032.475,1.391,1.391,0,0,0,.4.414.435.435,0,0,0,.609-.029c.258-.243.511-.493.753-.752a.445.445,0,0,0,0-.653.464.464,0,0,0-.657.011c-.216.185-.368.536-.78.234C4.2,6.925,4.023,7,3.974,7.122Zm0,7.577a.65.65,0,0,0,.038.474,1.274,1.274,0,0,0,.328.354.463.463,0,0,0,.7,0c.236-.223.465-.454.689-.689a.462.462,0,0,0,.029-.7.474.474,0,0,0-.679.044c-.2.181-.347.492-.737.207C4.21,14.493,4.027,14.569,3.972,14.7Zm.616-5.244a.46.46,0,0,0-.537.737c.1.1.2.206.3.3a.452.452,0,0,0,.676,0q.376-.353.73-.73A.458.458,0,1,0,5.1,9.124a5.3,5.3,0,0,0-.348.4C4.659,9.486,4.623,9.473,4.588,9.455Z" transform="translate(0 -1.569)" fill="#fff"/>
</svg>
